<svg viewBox="0 0 640 480" xmlns="http://www.w3.org/2000/svg">
 <!-- Generator: Sketch 39.1 (31720) - http://www.bohemiancoding.com/sketch -->
 <title>agens</title>
 <desc>Created with Sketch.</desc>

 <g>
  <title>background</title>
  <rect fill="none" id="canvas_background" height="482" width="642" y="-1" x="-1"/>
 </g>
 <g>
  <title>Layer 1</title>
  <g fill-rule="evenodd" fill="none" id="Page-1">
   <g stroke="null" fill="#EF340F" id="agens">
    <path stroke="null" id="Combined-Shape" d="m259.315307,230.016609c0.965105,2.497951 1.23134,5.431772 1.23134,7.342959c0,10.762973 -8.40301,21.945077 -21.731344,21.945077c-15.624614,0 -22.130714,-13.512389 -22.130714,-21.928304c0,-10.645627 8.319844,-22.012137 21.897745,-22.012137l34.776811,0l0,-14.635666l-34.676942,0c-21.614877,0 -36.623821,17.787441 -36.623821,36.681316c0,16.496531 13.328335,36.530458 36.523952,36.530458c9.551149,0 16.656286,-3.570907 21.964313,-7.376506l0,7.376506l14.592941,0l0,-43.923702l-15.824281,0zm57.739495,-29.288071c-22.663148,0 -36.490686,19.279495 -36.474053,36.530458c-0.465902,17.032975 13.344968,36.681316 36.557254,36.681316c11.880694,0 19.118931,-5.3312 21.148975,-6.607024c0,10.010264 -8.386377,18.29206 -19.401799,18.29206l-22.995986,0l0,13.545936l25.708232,0c19.867701,0 32.114464,-14.551833 32.114464,-30.679553l0,-31.098615c0,-16.882152 -13.528002,-36.664577 -36.657087,-36.664577zm115.279323,38.408097c0,-27.812756 -21.448476,-38.408097 -36.573922,-38.408097c-17.63799,0 -36.573887,14.300367 -36.573887,36.63103c0,22.347436 19.002465,36.580744 36.573887,36.580744c25.192396,0 34.377476,-22.950974 34.95988,-25.616592l-16.00735,0c-1.015005,1.710007 -6.788933,10.980926 -18.95253,10.980926c-15.12541,0 -21.931011,-13.797401 -21.931011,-20.168011l58.504933,0zm75.011416,-3.637967c0,-16.462984 -12.862433,-34.77013 -34.810112,-34.77013c-21.964278,0 -34.726877,18.240086 -34.726877,34.77013l0,38.458383l14.642875,-0.016739l0.033266,-38.441644c-0.033266,-10.461186 8.136775,-20.134463 20.067368,-20.134463c13.045467,0 20.117338,10.997664 20.117338,20.134463l0,38.441644l14.64284,0l0.033301,-38.441644zm23.728087,-34.77013c-5.241494,0.51974 -9.301547,2.900309 -13.228501,6.538276c-4.193188,4.140898 -5.94033,9.287692 -5.94033,15.507408c0,5.968251 1.747141,11.198879 5.94033,15.339776c3.660719,3.637932 8.769078,6.018537 13.228501,6.538241l30.134354,0c2.096577,0 4.04342,0.469418 5.341328,2.028532c1.564107,1.29091 2.362811,3.101489 2.362811,4.928841l0,0.251465c0,1.810614 -0.798704,3.621193 -2.362811,5.181995c-1.297908,1.289222 -2.612413,1.808926 -4.44279,2.077165c0,0 -3.42775,0.184406 -4.209821,0.184406l-46.940373,0l0,14.600431l50.88396,0c6.02353,0 11.265024,-2.07713 15.724447,-6.503041c4.44279,-4.124124 6.539366,-9.321205 6.539366,-15.291143l0,-2.328631c-0.532469,-5.180307 -2.629046,-9.589444 -6.539366,-13.210637c-3.660719,-3.889432 -8.519476,-6.03531 -13.494736,-6.555015l-26.590102,0c-0.515836,0 -10.982156,0.519705 -10.998789,-7.46034c0.016633,-6.974147 6.539366,-7.192065 7.321402,-7.192065l27.771542,-0.050286l4.842124,0l0.016633,-14.58538l-35.35918,0zm-357.419092,29.204238l-10.59942,0c0.565736,3.168548 0.848603,6.320323 0.848603,9.790623c0,13.512424 -4.858758,24.744815 -14.310073,34.233651c-9.185081,9.507298 -20.633139,14.100841 -33.811706,14.100841c-13.46147,0 -24.926161,-4.593543 -34.377476,-14.100841c-9.467949,-9.488837 -14.060471,-20.721228 -14.060471,-34.233651c0,-13.244149 4.592523,-24.761553 14.060471,-34.267164c9.451315,-9.488872 20.916007,-14.384201 34.377476,-14.384201c2.296279,0 4.592523,0.285013 6.589301,0.586764l0,-10.662365c-2.296279,-0.285013 -4.875426,-0.570026 -7.171705,-0.285013c-7.737405,-0.285013 -14.892442,1.156755 -21.481743,3.738539c-7.737405,2.866797 -14.326706,7.493852 -20.350271,13.529162c-11.747559,11.802417 -17.471588,25.616592 -17.471588,42.02929c0,16.395924 5.724029,30.78009 17.471588,42.297494c11.464727,11.517404 25.508565,17.267701 41.832014,17.267701c16.340117,0 30.367322,-5.750297 41.832014,-17.267701c11.747594,-11.517404 17.488257,-25.90157 17.488257,-42.297494c0,-3.453561 -0.299501,-6.907088 -0.865272,-10.075636zm-32.979735,-18.893875c-3.411117,-2.950595 -8.569411,-2.56501 -11.531259,0.871742c-0.366068,0.435906 -0.698871,0.905325 -0.96507,1.408255c-3.91032,-1.894413 -8.26991,-2.984143 -12.895734,-2.984143c-15.890813,0 -28.836446,12.506527 -29.63515,28.231888c-0.499203,0.016774 -1.01504,0.06706 -1.514208,0.167632c-4.409489,0.972349 -7.188338,5.3312 -6.223232,9.740337c0.965105,4.409137 5.324695,7.208839 9.71755,6.23649c0.532469,-0.100572 1.031638,-0.285013 1.514208,-0.486157c5.025159,9.287657 14.842542,15.591207 26.140833,15.591207c1.813744,0 3.560885,-0.182718 5.27476,-0.486157c0.116502,0.452645 0.266235,0.90529 0.465902,1.341161c1.896944,4.107385 6.755702,5.882764 10.849057,3.974919c4.093355,-1.912839 5.873797,-6.774621 3.96022,-10.865233c-0.232933,-0.519705 -0.532469,-1.022635 -0.865272,-1.458542c6.140032,-5.448546 10.033719,-13.378269 10.033719,-22.246829c0,-6.001798 -1.797076,-11.56769 -4.842124,-16.245066c0.482535,-0.352073 0.948437,-0.77117 1.36444,-1.240588c2.945215,-3.420014 2.579147,-8.583582 -0.848639,-11.550916zm255.085402,4.325303c12.413164,0 18.237026,9.50561 19.002465,10.997664l-38.004894,0c0.765438,-1.492054 6.589301,-10.997664 19.002429,-10.997664zm-78.622201,43.940441c-10.865655,0 -21.947645,-8.214736 -21.947645,-21.945077c0,-12.959172 10.366486,-21.995364 21.947645,-21.995364c10.46632,0 21.94768,8.265022 21.94768,21.995364c0,9.371526 -7.338106,21.945077 -21.94768,21.945077z"/>
   </g>
  </g>
 </g>
</svg>
