<svg xmlns="http://www.w3.org/2000/svg" id="Ebene_1" width="139.791" height="137.5"><style id="style2">.st2{fill:#828383}.st4{fill:#a8a6a7}.st5{fill:#fff}</style><g id="g47" transform="translate(-227.763 -297.2)"><g id="Layer_1_1_"><path id="polygon4" fill="#dd0932" d="M297.4 297.2l-64 22.8 9.8 84.6 54.2 30.1 54.3-30.1 9.7-84.6-64-22.8z"/><path id="polygon6" fill="#c31532" d="M297.4 312.4v122.3l54.3-30.1 9.7-84.6-64-22.8v15.3z"/></g><path class="st2" d="M341.9 379.8c.8.3 1.7.5 2.6.5.9 0 1.8-.2 2.6-.6-.5.1-.9.2-1.4.2-.9 0-1.9-.2-2.7-.5.6-1.7 2-7.6-4.5-13.6-.1-.1-.2-.1-.3-.1-.1 0-.2 0-.3.1-.2.1-.3.4-.2.6 0 0 .1.2.2.6 5.8 5.6 4.5 11.2 4 12.8zm-88.1 0c-.6-1.6-1.8-6.9 3.7-12.5.1-.6.2-1 .2-1 .1-.2 0-.4-.2-.6-.1 0-.2-.1-.3-.1-.1 0-.2 0-.3.1-6.5 6-5.1 11.9-4.5 13.6-.8.4-1.8.6-2.7.6-.3 0-.5 0-.8-.1.7.3 1.4.5 2.3.5.9 0 1.8-.2 2.6-.5zm105.1 16.3c1.9-1 3.4-2.5 4.5-4.4.1-.2.3-.3.4-.3.2 0 .4.1.4.3.2-.4.5-.9.7-1.4 2.1-5.1 1.1-11.7-3-19.5-.1-.2-.3-.3-.4-.3h-.1c-.2.1-.4.3-.4.5 0 0 0 .7-.1 1.6 3.5 7.1 4.2 13.1 2.3 17.8-.9 2.4-2.4 4.3-4.3 5.7zm-1.9-17.6c.3-.2.6-.4.8-.6 1.8-1.9 1.6-6.1 1.6-6.1 0-.2.1-.4.4-.5h.1c.1 0 .2 0 .3.1.2-3.9-.3-9.6-2.6-17.9-.1-.2-.3-.4-.5-.4h-.1c-.2 0-.4.2-.4.5 0 0 0 1-.1 2.4 3.7 14.2 1.8 20.3.5 22.5zm-20.9-5c-.5.2-1 .3-1.6.3-4.6 0-12.9-4.7-24.7-14-.6-.5-1.4-.8-2.2-.8-1.4.1-2.8.6-4.1 1.4-1.6.9-3.4 1.5-5.2 1.6h-1.4c-1.8-.1-3.6-.7-5.2-1.6-1.3-.7-2.7-1.2-4.1-1.4-.8 0-1.6.3-2.2.8-11.8 9.3-20.1 14-24.7 14-.4 0-.7 0-1.1-.1.6.5 1.4.8 2.3.7 4.4 0 12.5-4.6 24-13.6.6-.5 1.3-.7 2.1-.7 1.4.1 2.8.6 4 1.3 1.5.9 3.3 1.5 5.1 1.6h1.4c1.8-.1 3.5-.7 5.1-1.6 1.2-.7 2.6-1.2 4-1.3.8 0 1.5.3 2.1.7 11.5 9 19.6 13.6 24 13.6.9.1 1.7-.3 2.4-.9zm-100.7-1.9c.1-.2.3-.3.4-.3h.1c.2.1.4.3.4.5 0 0-.2 4.2 1.6 6.1.2.2.5.5.8.6-1.3-2.2-3.1-8.1.4-21.6-.2-2-.2-3.3-.2-3.3 0-.2-.2-.5-.4-.5h-.1c-.2 0-.4.1-.5.4-2.4 8.6-2.9 14.4-2.6 18.3 0-.1 0-.1.1-.2zm130.5 20.1c-.1-.2-.2-.3-.4-.4-.2 0-.4.1-.4.3l-.6.9c.9 3.2 3.9 15.6-2.7 24.5-4.4 5.9-11.8 8.8-19 9h-2.4c-4.6-.2-10.7-.9-13.9-4.2 3.1 3.9 9.9 5.1 14.9 5.2h2.4c7.4-.1 15.1-3 19.6-9.1 7.4-10.3 2.7-25.6 2.5-26.2zm-132 25.6c-6.3-8.6-3.8-20.8-2.8-24.4-.3-.4-.6-.8-.8-1.3-.1-.2-.3-.3-.5-.3s-.4.2-.4.3c-.2.6-4.9 16 2.6 26.2 6 8.2 19.4 10.8 28.7 7.8 1.9-.6 5.5-1.9 7.7-3.7-2.1 1.4-5 2.4-6.5 2.9-9.1 3-22.1.5-28-7.5zm-2.6-25.2c0-.2.1-.3.1-.3.1-.2.2-.3.4-.3s.4.1.4.3c1 1.9 2.6 3.4 4.5 4.3-1.9-1.4-3.4-3.3-4.3-5.5-1.9-4.6-1.2-10.4 2.1-17.3-.1-1.2-.1-2.2-.1-2.2 0-.2-.1-.4-.4-.5h-.1c-.2 0-.4.1-.4.3-4.1 7.8-5.1 14.4-3 19.5.2.6.5 1.2.8 1.7z" id="path9" fill="#828383"/><path d="M340 426c-5.6-.2-13.5-1.6-15.6-6.9-.1-.3 0-.7.2-.9 7.7-7 11.6-13.8 11.5-20 0-3.4-1.4-6.5-3.7-8.9-1.4.2-2.7.3-4.1.3-4.8 0-11.1-1.2-14.4-7.2-2.6-4.7-10.5-5.2-14.3-5.4-.7 0-1.3-.1-1.9-.2h-.5c-.6.1-1.3.1-1.9.2-3.8.2-11.8.7-14.3 5.4-3.3 6-9.6 7.2-14.4 7.2-1.4 0-2.7-.1-4.1-.3-2.3 2.4-3.7 5.7-3.7 9 0 6.2 3.9 12.9 11.6 19.9.3.2.4.6.2.9-.9 2.8-6.6 4.9-9.1 5.7-9 2.9-22 .3-27.9-7.6-7.3-10-2.7-24.9-2.5-25.5.1-.2.2-.3.4-.3s.4.1.4.3c1 1.9 2.6 3.4 4.5 4.3-1.9-1.4-3.4-3.3-4.3-5.5-2.1-5-1.1-11.4 2.9-19 .1-.2.3-.3.4-.3h.1c.2.1.4.3.4.5 0 0-.2 4.2 1.6 6.1.2.2.5.5.8.6-1.3-2.3-3.3-8.8 1-23.9.1-.2.3-.3.5-.4h.1c.2 0 .4.2.4.5s.7 25.5 10.6 25.5c.9 0 1.8-.2 2.7-.5-.6-1.7-1.9-7.4 4.4-13.2.1-.1.2-.1.3-.1.1 0 .2 0 .3.1.2.1.3.3.2.6 0 0-1.2 4.1.3 6.1.7.8 1.7 1.3 2.7 1.2 4.4 0 12.5-4.6 24-13.6.6-.5 1.3-.7 2.1-.7 1.4.1 2.8.6 4 1.3 1.5.9 3.3 1.5 5.1 1.6h1.4c1.8-.1 3.5-.7 5.1-1.6 1.2-.7 2.6-1.2 4-1.3.8 0 1.5.3 2.1.7 11.5 9 19.6 13.6 24 13.6 1 .1 2.1-.3 2.7-1.2 1.5-2 .3-6.1.3-6.1-.1-.2 0-.4.2-.6.1 0 .2-.1.3-.1.1 0 .2 0 .3.1 6.3 5.8 5 11.5 4.4 13.2.8.3 1.7.5 2.6.5 9.9 0 10.6-25.3 10.6-25.5 0-.2.2-.4.4-.5h.1c.2 0 .4.1.5.4 4.3 15.1 2.3 21.5 1 23.9.3-.2.6-.4.8-.6 1.8-1.9 1.6-6.1 1.6-6.1 0-.2.1-.4.4-.5h.1c.2 0 .3.1.4.3 4 7.6 5 14 2.9 19-.9 2.2-2.4 4.1-4.3 5.5 1.9-1 3.4-2.5 4.5-4.4.1-.2.3-.3.4-.3.2 0 .4.1.4.3.2.6 4.8 15.5-2.5 25.5-4.4 5.9-11.8 8.7-19 8.9H340z" id="path11" fill="#f0f0f0"/><path class="st4" d="M365.5 390.6c0-.2-.2-.3-.4-.3-.1 0-.3.1-.4.3l-.6.9v.1c.2.6 4.8 15.5-2.5 25.5-1 1.4-2.2 2.6-3.5 3.6 1.8-1.2 3.5-2.8 4.8-4.6 7.4-10 2.8-24.9 2.6-25.5zm-54.6-30.9c-.6-.4-1.3-.7-2.1-.7-1.4.1-2.8.6-4 1.3-1.6.9-3.3 1.5-5.1 1.6h-1.4c-1.8-.1-3.6-.7-5.1-1.6-1.2-.7-2.6-1.2-4-1.3-.8 0-1.5.2-2.1.7-.3.2-.6.5-.9.7.5-.3 1-.4 1.6-.4 1.4.1 2.8.6 4 1.3 1.5.9 3.3 1.5 5.1 1.6h1.4c1.8-.1 3.5-.7 5.1-1.6 1.2-.7 2.6-1.2 4-1.3.8 0 1.5.3 2.1.7 11.5 9 19.6 13.6 24 13.6 1 .1 2.1-.3 2.7-1.2-.4.2-.9.2-1.3.2-4.4 0-12.5-4.6-24-13.6zm48.5 12c0-.2.1-.4.4-.5h.1c.3-3.8-.2-9.5-2.5-17.7-.1-.3-.3-.4-.5-.4h-.2c-.2.1-.4.3-.4.5 0 0 0 .7-.1 1.8 3.9 14.4 2 20.6.7 23 .3-.2.6-.4.8-.6 1.9-1.9 1.7-6.1 1.7-6.1zm-.5 24.3c.8-.4 1.4-.9 2.1-1.4-.2.1-.5.3-.7.4.9-.7 1.8-1.5 2.5-2.4.2-.3.4-.6.6-1l.1-.1c.4-.6.8-1.3 1.1-2 2.1-5 1.1-11.4-2.9-19-.1-.2-.2-.3-.4-.3h-.1c-.3.1-.4.3-.4.5v1.6c3.7 7.3 4.5 13.4 2.5 18.2-1 2.2-2.5 4.1-4.4 5.5zm-99.8-22.9c.7.8 1.7 1.3 2.7 1.2 3.9 0 10.9-3.7 20.6-11-9 6.6-15.5 10-19.2 10-1 .1-2-.4-2.7-1.2-1.5-2-.3-6.1-.3-6.1.1-.3 0-.5-.2-.6-.1-.1-.2-.1-.3-.1-.1 0-.2 0-.3.1l-.9.9c.1 0 .1 0 .2.1.2.1.3.3.2.6-.1 0-1.3 4.1.2 6.1zm84 5.5c.6-1.7 1.9-7.4-4.4-13.2-.1-.1-.2-.1-.3-.1-.1 0-.2.1-.3.1-.2.2-.3.4-.2.6 0 0 .1.5.3 1.2 5.4 5.5 4.2 10.8 3.6 12.4.8.3 1.7.5 2.6.5 1.6 0 2.9-.6 4.1-1.7-.8.5-1.7.7-2.7.7-1 0-1.9-.2-2.7-.5zM232.3 391c-.1.2-.2.6-.3 1 1 1.8 2.5 3.2 4.3 4-1.7-1.3-3-3-4-5zm48.7-8.6c-.8 1.5-1.8 2.7-2.9 3.6 1.6-1.1 3.1-2.5 4.2-4.6.4-.7.9-1.3 1.5-1.8-1.2.7-2.2 1.6-2.8 2.8zm-9.3 34.8c-7.7-7-11.6-13.7-11.6-19.9 0-2.8 1-5.7 2.8-8h-.4c-2.3 2.4-3.7 5.7-3.7 9 0 6.2 3.9 12.9 11.6 19.9.3.2.4.6.2.9-.2.7-.7 1.3-1.4 1.9 1.3-.8 2.4-1.8 2.7-2.9.2-.3.1-.7-.2-.9zm-19.5-38.1c-9.9 0-10.6-25.2-10.6-25.5 0-.3-.2-.5-.4-.5h-.1c-.2.1-.4.2-.5.4-.1.4-.2.8-.3 1.3.1 2.1 1.1 25.3 10.6 25.3.9 0 1.8-.2 2.7-.5-.1-.2-.1-.4-.2-.6-.4.1-.8.1-1.2.1zm-15.9-8.6c-.2.3-.3.7-.5 1 0 .1.1.1.1.2 0 0-.2 4.2 1.6 6.1.2.2.5.5.8.6-.7-1.2-1.6-3.8-1.6-8.2-.1.1-.3.1-.4.3z" id="path13" fill="#a8a6a7"/><path class="st5" d="M233.5 380c-.3 2.4-1.2 4.9-.8 7.3.3 1.7 1 3.1 2.1 4.3.7.8 5.1 5.1 4.5 1.3-.2-1.2-1.2-2-2.2-2.6-3.5-2.4-4.2-6.1-3.6-10.3z" id="path15" fill="#fff"/><path class="st5" d="M255.6 373.5s1.2 5.9 9.3 2.9c8.1-3 15.8-9.6 15.8-9.6s-9.3 11.3-20 12.1c.1 0-6.4.2-5.1-5.4z" id="path17" fill="#fff"/><path class="st5" d="M239 361.6s-1.8 8.9 0 13.7c1.8 4.8.9-2.4.9-2.4s-.9-8.3-.9-11.3z" id="path19" fill="#fff"/><path class="st4" d="M239.2 422.7s13 5 23.2-5c0 0 .6.4 0 1.3 0 0-1.2 2-5.9 4-4.7 2.1-8.7 1.9-9.2 2 0 0-5.6.2-8.1-2.3z" id="path21" fill="#a8a6a7"/><path class="st4" d="M229.9 394.5s-.1 13.9 12.8 20c0 0-.1.7-1.2.4 0 0-2.2-.4-5.8-4.1-3.6-3.7-4.9-7.5-5.1-8-.1.2-2.2-5-.7-8.3z" id="path23" fill="#a8a6a7"/><path class="st4" d="M234.2 373s-3.5 11.1 5.2 19.1c0 0-.3.5-1.1.1 0 0-1.7-.9-3.6-4.7-1.9-3.8-2-7.2-2.1-7.6 0-.1-.4-4.7 1.6-6.9z" id="path25" fill="#a8a6a7"/><path class="st5" d="M232.6 399.6c.1.7.5 1.7.6 2 .9 2 2.3 3.8 3.6 5.5 3.2 4.2 7.7 7.5 13.1 7.9-4.2-.4-7.9-3.6-10.3-6.9-1.4-1.9-2.5-4.2-3.8-6.3-.5-.8-1.4-2.6-2.3-2.9-.8-.2-1 .1-.9.7z" id="path27" fill="#fff"/><path class="st5" d="M334.6 378.9c-10.7-.8-20-12.1-20-12.1s7.7 6.6 15.8 9.6c8.1 3 9.3-2.9 9.3-2.9 1.3 5.6-5.2 5.4-5.1 5.4z" id="path29" fill="#fff"/><path class="st5" d="M355.4 372.9s-.9 7.2.9 2.4c1.8-4.8 0-13.7 0-13.7 0 3-.9 11.3-.9 11.3z" id="path31" fill="#fff"/><path class="st4" d="M348 425c-.5-.1-4.5.1-9.2-2-4.7-2-5.9-4-5.9-4-.6-.9 0-1.3 0-1.3 10.2 10 23.2 5 23.2 5-2.5 2.5-8.1 2.3-8.1 2.3z" id="path33" fill="#a8a6a7"/><path class="st4" d="M364.7 402.8c0 .1-.1.2-.1.3-1 2.5-2.4 4.8-4.2 6.9-.2.3-.5.5-.8.8-3.6 3.7-5.8 4.1-5.8 4.1-1.1.3-1.2-.4-1.2-.4 12.9-6.1 12.8-20 12.8-20 1.2 2.7.4 5.7-.7 8.3z" id="path35" fill="#a8a6a7"/><path class="st4" d="M362.7 379.9c-.1.4-.2 3.8-2.1 7.6-1.9 3.8-3.6 4.7-3.6 4.7-.8.4-1.1-.1-1.1-.1 8.7-8 5.2-19.1 5.2-19.1 2 2.2 1.6 6.8 1.6 6.9z" id="path37" fill="#a8a6a7"/><path class="st5" d="M361.8 398.9c-.9.3-1.8 2.1-2.3 2.9-1.3 2.1-2.4 4.4-3.8 6.3-2.4 3.3-6.1 6.5-10.3 6.9 5.4-.4 9.9-3.7 13.1-7.9 1.3-1.7 2.7-3.5 3.6-5.5.1-.3.5-1.3.6-2 .1-.6-.1-.9-.9-.7z" id="path39" fill="#fff"/><path d="M327.8 389c-5.7-.5-8.8-3.6-13.7-8.4-5.1-4.9-12.4-6.2-19.4-5.5-8.9.9-12.3 4.5-17.4 8.8-3.1 2.7-6.5 5-10.8 5.3-4.3.2-8.6-2-11-5.6.3 2.3 1.8 4.2 3.7 5.5 1.9 1.3 4.2 1.7 6.5 1.8 3.4.1 6.8-.6 9.7-2.4 3.3-2 5.6-5.2 8.8-7.4 4.6-3.1 10.4-3.6 15.8-3.3 4.1.2 8.2 1.4 11.4 3.9 2.2 1.8 3.9 4.1 6.1 5.9 3.9 3.2 9.4 4.3 14.2 2.9 3.4-.9 6.6-3.2 7.5-6.6-.9 1.9-2.8 3.1-4.7 3.9-1.9 1.1-4.3 1.4-6.7 1.2z" id="path41" fill="#858585"/><path class="st2" d="M262.3 390.4s-8.7 10.3 9.5 26.8c0 0 1.5.9-2.5 3.8 0 0 2.5-1.7 1.2-2.8-1.3-1.1-9-8.1-11.3-16.2 0 0-1.9-7.2 2.6-11.8z" id="path43" fill="#828383"/><path class="st2" d="M332.5 390.4s8.7 10.3-9.5 26.8c0 0-1.5.9 2.5 3.8 0 0-1.8-2-.5-3 1.3-1.1 9.2-8 10.9-16.4 0 0 1.6-6.9-2.8-11.4z" id="path45" fill="#828383"/></g></svg>