<svg viewBox="0 0 640 480" xmlns="http://www.w3.org/2000/svg">
 <metadata id="metadata8">image/svg+xml</metadata>
 <defs>
  <clipPath clipPathUnits="userSpaceOnUse" id="clipPath16">
   <path d="m-46.839355,708.675923l841.89,0l0,-595.28l-841.89,0l0,595.28z" id="path18"/>
  </clipPath>
 </defs>
 <g>
  <title>background</title>
  <rect fill="none" id="canvas_background" height="482" width="642" y="-1" x="-1"/>
 </g>
 <g>
  <title>Layer 1</title>
  <g id="g10" transform="matrix(0.7729013027757148,0,0,-0.7729013027757148,30.81764916613133,557.2001041071112) ">
   <g id="g12">
    <g id="g14" clip-path="url(#clipPath16)">
     <g id="g20">
      <path fill="#373535" fill-rule="nonzero" d="m172.630844,398.305133c0.006,10.64 8.565,19.146 19.241,19.157c10.662,-0.007 19.237,-8.554 19.241,-19.199c-0.001,-10.649 -8.591,-19.24 -19.241,-19.241c-10.636,0.019 -19.221,8.629 -19.241,19.283m19.241,126.525c-29.643,-0.004 -53.671,-24.019 -53.673,-53.664c0,-1.334 0.54,-2.637 1.484,-3.58c0.943,-0.943 2.245,-1.483 3.579,-1.483l24.306,0c1.332,0 2.636,0.54 3.579,1.483c0.943,0.943 1.484,2.247 1.484,3.58c0.013,5.7 2.082,10.399 5.449,13.776c3.384,3.361 8.098,5.427 13.8,5.439c5.703,-0.012 10.41,-2.076 13.79,-5.438c3.364,-3.375 5.431,-8.076 5.443,-13.777l0,-22.627c-5.975,2.3 -12.467,3.567 -19.241,3.565c-29.644,-0.002 -53.671,-24.028 -53.673,-53.672c0.002,-29.646 24.028,-53.67 53.673,-53.674c29.499,0.004 53.426,23.789 53.666,53.231c0.006,0.087 0.008,0.174 0.008,0.263l0,72.914c-0.005,29.645 -24.03,53.66 -53.674,53.664" id="path22"/>
     </g>
     <g id="g24">
      <path fill="#373535" fill-rule="nonzero" d="m556.450623,490.381335c5.703,-0.012 10.409,-2.074 13.786,-5.433c3.359,-3.373 5.425,-8.069 5.436,-13.771c0,-2.797 2.262,-5.061 5.06,-5.063l24.305,-0.022c1.352,0 2.625,0.526 3.583,1.482c0.957,0.956 1.484,2.229 1.484,3.581l0,0.003c-0.004,29.645 -24.029,53.672 -53.672,53.675c-29.644,-0.003 -53.67,-24.03 -53.673,-53.675c0,-0.114 0.003,-0.228 0.011,-0.341c0.193,-29.332 23.899,-53.073 53.22,-53.317c0.152,-0.015 0.309,-0.021 0.463,-0.021c5.698,-0.014 10.406,-2.081 13.785,-5.448c3.364,-3.379 5.431,-8.087 5.443,-13.785c-0.012,-5.692 -2.085,-10.39 -5.456,-13.767c-3.388,-3.366 -8.11,-5.431 -13.812,-5.444c-5.704,0.013 -10.41,2.075 -13.786,5.434c-3.36,3.37 -5.425,8.069 -5.438,13.769c0,2.797 -2.263,5.063 -5.058,5.064l-24.305,0.022c-1.354,0 -2.627,-0.525 -3.584,-1.481c-0.956,-0.958 -1.483,-2.229 -1.483,-3.582l0,-0.005c0.003,-29.646 24.026,-53.669 53.67,-53.672c29.646,0.003 53.671,24.026 53.675,53.672c0,0.123 -0.004,0.244 -0.013,0.365c-0.201,29.466 -24.106,53.279 -53.624,53.28l0,-5.064l-0.021,0.003l0,5.064l0,0.001c-5.699,0.012 -10.407,2.082 -13.789,5.45c-3.366,3.383 -5.436,8.096 -5.446,13.797c0,0.093 -0.002,0.187 -0.009,0.282c0.076,5.577 2.134,10.183 5.448,13.508c3.383,3.361 8.097,5.427 13.8,5.439" id="path26"/>
     </g>
     <g id="g28">
      <path fill="#373535" fill-rule="nonzero" d="m294.168457,471.062427c0.009,5.702 2.08,10.44 5.446,13.84c3.381,3.388 8.08,5.466 13.769,5.479c5.687,-0.012 10.422,-2.097 13.829,-5.488c3.394,-3.408 5.478,-8.144 5.489,-13.831l0,-72.737c-0.011,-5.701 -2.08,-10.44 -5.446,-13.841c-3.384,-3.384 -8.082,-5.463 -13.769,-5.476c-5.689,0.011 -10.425,2.096 -13.833,5.488c-3.391,3.406 -5.476,8.141 -5.485,13.829l0,72.737zm19.318,53.724c-29.63,-0.002 -53.817,-23.95 -53.829,-53.621l0.075,-72.919l0,-0.005l-0.009,-97.208c-0.002,-1.333 0.54,-2.638 1.482,-3.58c0.943,-0.943 2.247,-1.483 3.582,-1.483l24.302,0c1.334,0 2.64,0.54 3.581,1.483c0.944,0.942 1.483,2.247 1.483,3.58l0,46.984c6.002,-2.333 12.526,-3.622 19.333,-3.621c29.681,0.018 53.711,24.292 53.723,53.931l0,72.838c-0.005,29.655 -24.091,53.62 -53.723,53.621" id="path30"/>
     </g>
     <g id="g32">
      <path fill="#373535" fill-rule="nonzero" d="m415.690948,471.062427c0.012,5.702 2.079,10.442 5.447,13.841c3.381,3.385 8.08,5.465 13.769,5.476c5.688,-0.01 10.423,-2.093 13.83,-5.487c3.392,-3.408 5.476,-8.142 5.488,-13.83l0,-72.737c-0.011,-5.701 -2.081,-10.44 -5.447,-13.841c-3.381,-3.384 -8.081,-5.464 -13.768,-5.475c-5.69,0.01 -10.425,2.095 -13.831,5.487c-3.393,3.406 -5.476,8.143 -5.488,13.829l0,72.737zm19.319,53.724c-29.63,-0.002 -53.818,-23.949 -53.829,-53.621l0.077,-72.919l0,-0.005l-0.012,-97.207c-0.001,-1.333 0.54,-2.639 1.483,-3.581c0.943,-0.943 2.247,-1.482 3.58,-1.482l24.307,0c1.332,0 2.636,0.539 3.578,1.482c0.944,0.942 1.483,2.247 1.483,3.58l0,46.984c6.001,-2.334 12.527,-3.622 19.333,-3.622c29.681,0.02 53.711,24.293 53.723,53.932l0,72.838c-0.005,29.655 -24.09,53.62 -53.723,53.621" id="path34"/>
     </g>
    </g>
   </g>
  </g>
 </g>
</svg>
