<svg viewBox="0 0 640 480" xmlns="http://www.w3.org/2000/svg">
 <metadata id="metadata8">image/svg+xml</metadata>
 <g>
  <title>Layer 1</title>
  <g stroke="null" id="svg_1">
   <g stroke="null" id="g22" transform="matrix(1.1446071416139603,0,0,-1.1446071416139603,5.980576415062387,988.9780966414269) ">
    <path stroke="null" id="path24" d="m75.281462,700.404029l34.853,0c0,0 28.74,2.429 28.74,-21.761c0,-24.186 -24.776,-22.368 -29.506,-22.368l-34.276,0.047l0,10.702l35.57,0c0,0 15.622,-0.721 15.622,11.619c0,11.917 -10.559,11.081 -16.004,11.081l-35.006,0l0.007,10.68z" fill-rule="nonzero" fill="#000000"/>
   </g>
   <g stroke="null" id="g26" transform="matrix(1.1446071416139603,0,0,-1.1446071416139603,5.980576415062387,988.9780966414269) ">
    <path stroke="null" id="path28" d="m134.185752,648.295629c5.295,-3.174 10.062,-8.887 10.062,-18.236c0,-24.185 -24.79,-22.822 -29.519,-22.822l-39.636,-0.033l0,10.715l40.67,0.006c0,0 15.794,-0.206 15.895,12.134c0.07,8.479 -5.323,14.932 -10.473,18.236l13.001,0z" fill-rule="nonzero" fill="#000000"/>
   </g>
   <g stroke="null" id="g30" transform="matrix(1.1446071416139603,0,0,-1.1446071416139603,5.980576415062387,988.9780966414269) ">
    <path stroke="null" id="path32" d="m175.272672,648.295629l14.899,0l0,-21.158c0,-6.942 4.167,-9.218 8.295,-9.218l40.725,0l0.059,-10.868l-49.142,0c-5.111,0 -14.836,3.309 -14.836,17.11l0,24.134z" fill-rule="nonzero" fill="#000000"/>
   </g>
   <g stroke="null" id="g34" transform="matrix(1.1446071416139603,0,0,-1.1446071416139603,5.980576415062387,988.9780966414269) ">
    <path stroke="null" id="path36" d="m239.298062,666.958229c-3.735,0 -38.012,0.019 -42.14,0.019c-4.128,0 -7.05,0.399 -7.05,5.134c0,0.741 0,11.506 0.072,12.333c0,4.968 2.558,5.28 6.686,5.28l42.333,0l0.006,10.68l-48.028,0c0,0 -15.904,1.062 -15.904,-15.946l0,-11.868c0,-15.273 11.397,-16.268 16.507,-16.268l47.425,0l0.093,10.636z" fill-rule="nonzero" fill="#000000"/>
   </g>
   <g stroke="null" id="g38" transform="matrix(1.1446071416139603,0,0,-1.1446071416139603,5.980576415062387,988.9780966414269) ">
    <path stroke="null" id="path40" d="m345.884482,700.380099c-2.242,-2.473 -23.059,-27.36 -25.704,-29.967c-4.398,-4.337 -12.281,-3.413 -18.665,-3.413c-6.484,0 -7.593,4.909 -7.593,8.245c0,3.34 -0.025,22.116 -0.025,25.135l-14.827,0c0,-3.178 0.054,-29.248 0.054,-33.38c0,-3.285 1.541,-10.717 14.744,-10.717c2.484,0 25.177,0.037 25.436,0.039c3.273,0.024 8.195,1.993 13.852,8.679c1.672,1.978 25.845,31.059 29.771,35.379l-17.043,0z" fill-rule="nonzero" fill="#000000"/>
   </g>
   <g stroke="null" id="g42" transform="matrix(1.1446071416139603,0,0,-1.1446071416139603,5.980576415062387,988.9780966414269) ">
    <path stroke="null" id="path44" d="m331.290732,641.603189c-3.113,3.363 -5.948,6.692 -15.737,6.692l-21.685,0c-10.848,0 -14.708,-7.87 -14.708,-12.003l0,-29.1l14.772,0.048c0,3.019 0.026,21.717 0.026,25.056c0,3.337 0.979,5.224 7.465,5.224c6.385,0 5.389,-0.035 6.108,-0.03c6.107,0.04 9.531,-0.217 12.685,-3.361c2.632,-2.62 24.263,-24.278 26.748,-26.894l16.998,0c-4.169,4.463 -30.912,32.467 -32.672,34.368" fill-rule="nonzero" fill="#000000"/>
   </g>
   <g stroke="null" id="g46" transform="matrix(1.1446071416139603,0,0,-1.1446071416139603,5.980576415062387,988.9780966414269) ">
    <path stroke="null" id="path48" d="m455.523162,700.348299c-2.242,-2.473 -23.06,-27.36 -25.704,-29.967c-4.39801,-4.337 -12.281,-3.413 -18.66501,-3.413c-6.485,0 -7.593,4.909 -7.593,8.245c0,3.34 -0.025,22.117 -0.025,25.135l-14.82799,0c0,-3.178 0.055,-29.248 0.055,-33.38c0,-3.284 1.541,-10.717 14.744,-10.717c2.484,0 25.177,0.037 25.436,0.039c3.273,0.024 8.195,1.993 13.851,8.679c1.673,1.978 25.846,31.059 29.772,35.379l-17.043,0z" fill-rule="nonzero" fill="#000000"/>
   </g>
   <g stroke="null" id="g50" transform="matrix(1.1446071416139603,0,0,-1.1446071416139603,5.980576415062387,988.9780966414269) ">
    <path stroke="null" id="path52" d="m440.929342,641.571999c-3.113,3.363 -5.948,6.691 -15.737,6.691l-21.685,0c-10.849,0 -14.708,-7.869 -14.708,-12.002l0,-29.101l14.772,0.049c0,3.018 0.026,21.717 0.026,25.056c0,3.336 0.98,5.223 7.465,5.223c6.385,0 5.388,-0.034 6.108,-0.029c6.107,0.04 9.53,-0.217 12.685,-3.362c2.632,-2.619 24.262,-24.278 26.748,-26.894l16.998,0c-4.169,4.463 -30.912,32.468 -32.672,34.369" fill-rule="nonzero" fill="#000000"/>
   </g>
  </g>
 </g>
</svg>
