<svg viewBox="0 0 640 480" xmlns="http://www.w3.org/2000/svg">
 <metadata id="metadata8">image/svg+xml</metadata>
 <defs>
  <clipPath clipPathUnits="userSpaceOnUse" id="clipPath16">
   <path d="m-324.888735,624.11984l960,0l0,-560l-960,0l0,560z" id="path18"/>
  </clipPath>
 </defs>
 <g>
  <title>background</title>
  <rect fill="none" id="canvas_background" height="482" width="642" y="-1" x="-1"/>
 </g>
 <g>
  <title>Layer 1</title>
  <g id="g10" transform="matrix(2.4211135506629944,0,0,-2.4211135506629944,-56.44710130916792,1072.0142836251762) ">
   <g id="g12">
    <g id="g14" clip-path="url(#clipPath16)">
     <g id="g20">
      <path fill="#ec6608" fill-rule="nonzero" d="m197.81439,351.867429c-1.299,-3.33 -2.871,-7.495 -4.473,-11.523c-2.597,-6.533 -5.136,-13.234 -5.761,-14.807c-0.684,1.514 -3.621,8.323 -6.541,14.807c-1.866,4.135 -3.645,8.369 -5.071,11.523l-8.193,0l5.077,-11.523l8.898,-20.211c0.664,-1.396 2.236,-3.779 5.693,-3.896c1.601,-0.059 4.512,0.273 5.937,3.672l8.008,20.435l4.453,11.523l-8.027,0z" id="path22"/>
     </g>
     <g id="g24">
      <path fill="#ec6608" fill-rule="nonzero" d="m157.335875,340.344449l0,-6.855c0,-5.309 -4.277,-9.635 -9.541,-9.635c-5.273,0 -9.561,4.326 -9.561,9.635l0,6.855l0,11.503l-7.475,0l0,-11.503l0,-6.855c0,-9.44 7.641,-17.106 17.036,-17.106c9.375,0 17.012,7.666 17.012,17.106l0,6.855l0,11.503l-7.471,0l0,-11.503z" id="path26"/>
     </g>
     <g id="g28">
      <path fill="#ec6608" fill-rule="nonzero" d="m70.006773,323.844449c-5.742,0 -10.425,4.713 -10.425,10.508c0,2.226 0.698,4.293 1.88,5.992c1.885,2.719 5.015,4.501 8.545,4.501c3.54,0 6.675,-1.782 8.56,-4.501c1.181,-1.699 1.879,-3.766 1.879,-5.992c0,-5.795 -4.682,-10.508 -10.439,-10.508m0,28.482c-3.892,0 -7.485,-1.255 -10.425,-3.384l0,22.178l-7.471,0l0,-30.776l0,-5.992c0,-9.922 8.033,-17.979 17.896,-17.979c9.878,0 17.9,8.057 17.9,17.979c0,2.099 -0.366,4.117 -1.03,5.992c-2.461,6.972 -9.092,11.982 -16.87,11.982" id="path30"/>
     </g>
     <g id="g32">
      <path fill="#ec6608" fill-rule="nonzero" d="m109.122953,323.942136c-5.737,0 -10.41,4.717 -10.41,10.514c0,2.181 0.664,4.209 1.797,5.888c1.875,2.778 5.039,4.609 8.613,4.609c3.589,0 6.753,-1.831 8.633,-4.609c1.138,-1.679 1.802,-3.707 1.802,-5.888c0,-5.797 -4.678,-10.514 -10.435,-10.514m0,28.487c-7.803,0 -14.458,-5.064 -16.895,-12.085c-0.644,-1.845 -0.996,-3.828 -0.996,-5.888c0,-9.918 8.033,-17.975 17.891,-17.975c9.878,0 17.91,8.057 17.91,17.975c0,2.06 -0.356,4.043 -0.996,5.888c-2.436,7.021 -9.092,12.085 -16.914,12.085" id="path34"/>
     </g>
     <g id="g36">
      <path fill="#ec6608" fill-rule="nonzero" d="m223.43939,323.854245c-5.732,0 -10.41,4.713 -10.41,10.508c0,2.222 0.693,4.287 1.865,5.982c1.885,2.725 5.02,4.516 8.545,4.516c2.549,0 4.854,-0.937 6.66,-2.465l-0.029,-0.016l-3.526,-2.035l-4.863,-2.808l-0.01,0.009c-1.787,-1.035 -2.392,-3.314 -1.367,-5.107c1.035,-1.781 3.321,-2.397 5.108,-1.367l12.256,7.037l-0.02,0.01c0.879,0.507 1.475,1.318 1.729,2.226c0.263,0.938 0.166,1.967 -0.362,2.871c-0.615,1.084 -1.357,2.07 -2.168,2.998l-0.049,0.049c-3.281,3.711 -8.037,6.069 -13.359,6.069c-7.764,0 -14.395,-5.015 -16.865,-11.987c-0.655,-1.871 -1.026,-3.886 -1.026,-5.982c0,-9.922 8.037,-17.979 17.891,-17.979c7.432,0 13.818,4.571 16.523,11.045l-6.875,2.965c-1.552,-3.834 -5.283,-6.539 -9.648,-6.539" id="path38"/>
     </g>
     <g id="g40">
      <path fill="#ec6608" fill-rule="nonzero" d="m251.769468,371.012937l-7.461,0l0,-30.668l0,-10.29c0.02,-7.5 6.074,-13.613 13.525,-13.71l0.059,0l0.049,0l0.068,0l0.03,0l0.82,0l0,7.47l-0.85,0c-3.427,0 -6.23,2.813 -6.24,6.26l0,10.27l0,4.027l7.09,0l0,7.476l-7.09,0l0,19.165z" id="path42"/>
     </g>
    </g>
   </g>
  </g>
 </g>
</svg>
