<svg id="Layer_1" xmlns="http://www.w3.org/2000/svg" viewBox="0 0 700 120"><style>.st0{fill:#ffc107;}</style><g><g><g><g><path class="st0" d="M164.4 60c0-23.4 17.2-39.4 39.2-39.4 13.5 0 22.8 6.4 28.9 15.1l-7.9 4.5c-4.3-6.5-12.3-11.1-21-11.1-16.7 0-29.3 12.7-29.3 30.9 0 18 12.7 30.9 29.3 30.9 8.7 0 16.7-4.7 21-11.1l8 4.3c-6.4 8.8-15.5 15.2-29 15.2-22 .1-39.2-15.9-39.2-39.3zM244 98V21.9h9.5V98H244zM325.2 98l-44.4-60.7V98h-9.5V21.9h9.7l43.8 59.5V21.9h9.5V98h-9.1zM352.2 98V21.9h49.9v8.4h-40.4v24.5h39.6v8.4h-39.6v26.3h40.4V98h-49.9zM481.6 98V34l-25.8 64H452l-26-64v64h-9.5V21.9h13.6l23.7 58.7 23.6-58.7H491V98h-9.4zM563.2 98l-6.7-17h-37.9l-6.7 17H501l30.7-76.1h11.8L574.1 98h-10.9zm-25.7-66.4l-16.1 41.1h32.3l-16.2-41.1z"/></g></g><g><path class="st0" d="M683.6 53.1c-9-3.3-19.1-4.1-23.8-6.5-1.6-.8-2.6-1.9-2.6-3.3 0-3.2 2.3-5.1 7.5-5.2h.7c7.5 0 15.8 2.6 22.2 8l9.2-15.9c-6.2-4.9-13.8-7.9-22.4-8.9-2.3-.3-4.6-.4-7-.4-19.5 0-30.2 11.4-30.2 24.2 0 10.3 5.4 16 12.3 19.4 7.7 3.8 17.3 4.9 23.7 6.6 4.2 1.1 6.9 2.5 6.9 5 0 3.8-4.1 6-10.7 6-.9 0-1.7 0-2.6-.1-9.3-.7-16.8-4.9-21.8-9.9l-9.4 16.2c5.5 4.8 12.5 8.5 21.6 10.2 3.4.6 7.1.9 11 .9 20.4 0 31.7-10.2 31.7-25.4.3-12-7.4-17.6-16.3-20.9zM608 22l-10.8 18.6h14.4v31.1c0 6.4-4 10.4-10.2 10.4-4.6 0-8.1-2-10.9-4.3l-8.4 14.6c5.7 5 13.4 7 21 7 16.6 0 28-8.7 28-27.5V22H608z"/></g></g><g><g><path class="st0" d="M136.6 83.8L90.2 3.6 70.9 37.2l47.7 82.6 2.5-4.3-1.1-1.9c-.2-.3-.1-.7.2-.9l3.6-2.1 9.4-16.2 3.3-5.7c.8-1.5.8-3.6.1-4.9zM77 39.2l-1.6-2.8c-.2-.3-.1-.7.2-.9l3.6-2.1c.3-.2.7-.1.9.2l1.6 2.8c.2.3.1.7-.2.9L78 39.4c-.4.2-.8.1-1-.2zm5.6 9.6L81 46c-.2-.3-.1-.7.2-.9l3.7-2.1c.3-.2.7-.1.9.2l1.6 2.8c.2.3.1.7-.2.9L83.5 49c-.3.3-.7.1-.9-.2zm5.6 9.7l-1.6-2.8c-.2-.3-.1-.7.2-.9l3.6-2.1c.3-.2.7-.1.9.2l1.6 2.8c.2.3.1.7-.2.9l-3.6 2.1c-.3.2-.7.1-.9-.2zm5.5 9.6l-1.6-2.8c-.2-.3-.1-.7.2-.9l3.6-2.1c.3-.2.7-.1.9.2l1.6 2.8c.2.3.1.7-.2.9l-3.6 2.1c-.3.2-.7.1-.9-.2zm5.6 9.7L97.7 75c-.2-.3-.1-.7.2-.9l3.6-2.1c.3-.2.7-.1.9.2L104 75c.2.3.1.7-.2.9l-3.6 2.1c-.3.2-.7.1-.9-.2zm5.6 9.6l-1.6-2.8c-.2-.3-.1-.7.2-.9l3.7-2.1c.3-.2.7-.1.9.2l1.6 2.8c.2.3.1.7-.2.9l-3.7 2.1c-.3.2-.7.1-.9-.2zm5.5 9.6l-1.6-2.8c-.2-.3-.1-.7.2-.9l3.7-2.1c.3-.2.7-.1.9.2l1.6 2.8c.2.3.1.7-.2.9l-3.7 2.1c-.3.3-.7.2-.9-.2zm10.2 7.8l-3.7 2.1c-.3.2-.7.1-.9-.2l-1.6-2.8c-.2-.3-.1-.7.2-.9l3.7-2.1c.3-.2.7-.1.9.2l1.6 2.8c.2.3.1.7-.2.9z"/></g><g><path class="st0" d="M88.3.3h-5l-1.1 1.9c-.2.3-.6.4-.9.2L77.7.3H52.3c-1.5 0-3.3 1.1-4.1 2.3L1.9 82.9h38.8L88.3.3zM71.8 9.1l1.6-2.8c.2-.3.6-.4.9-.2L78 8.2c.3.2.4.6.2.9l-1.6 2.8c-.2.3-.6.4-.9.2L72.1 10c-.3-.2-.4-.6-.3-.9zm-5.5 9.6l1.6-2.8c.2-.3.6-.4.9-.2l3.7 2.1c.3.2.4.6.2.9l-1.6 2.8c-.2.3-.6.4-.9.2l-3.6-2.1c-.4-.2-.5-.6-.3-.9zm-5.6 9.6l1.6-2.8c.2-.3.6-.4.9-.2l3.6 2.1c.3.2.4.6.2.9l-1.6 2.8c-.2.3-.6.4-.9.2l-3.5-2c-.4-.2-.5-.6-.3-1zM55.1 38l1.6-2.8c.2-.3.6-.4.9-.2l3.7 2.1c.3.2.4.6.2.9L60 40.8c-.2.3-.6.4-.9.2l-3.6-2.1c-.4-.2-.5-.6-.4-.9zm-5.5 9.6l1.6-2.8c.2-.3.6-.4.9-.2l3.6 2.1c.3.2.4.6.2.9l-1.6 2.8c-.2.3-.6.4-.9.2l-3.7-2.1c-.2-.1-.3-.5-.1-.9zM44 57.3l1.6-2.8c.2-.3.6-.4.9-.2l3.6 2.1c.3.2.4.6.2.9l-1.6 2.8c-.2.3-.6.4-.9.2l-3.6-2.1c-.3-.2-.4-.6-.2-.9zm-5.6 9.6l1.6-2.8c.2-.3.6-.4.9-.2l3.6 2.1c.3.2.4.6.2.9l-1.6 2.8c-.2.3-.6.4-.9.2l-3.6-2.1c-.2-.1-.3-.6-.2-.9zm-.7 12.4c-.2.3-.6.4-.9.2l-3.6-2.1c-.3-.2-.4-.6-.2-.9l1.6-2.8c.2-.3.6-.4.9-.2l3.7 2.1c.3.2.4.6.2.9l-1.7 2.8z"/></g><g><path class="st0" d="M0 86.2l2.5 4.3h2.2c.4 0 .7.3.7.7v4.3l9.4 16.2 3.3 5.7c.7 1.3 2.6 2.4 4.1 2.4h92.6L95.3 86.2H0zm16.5 9.2c0 .4-.3.7-.7.7h-3.3c-.4 0-.7-.3-.7-.7v-4.2c0-.4.3-.7.7-.7h3.3c.4 0 .7.3.7.7v4.2zm11.1 0c0 .4-.3.7-.7.7h-3.3c-.4 0-.7-.3-.7-.7v-4.2c0-.4.3-.7.7-.7H27c.4 0 .7.3.7.7v4.2zm11.2 0c0 .4-.3.7-.7.7h-3.3c-.4 0-.7-.3-.7-.7v-4.2c0-.4.3-.7.7-.7h3.3c.4 0 .7.3.7.7v4.2zm11.1 0c0 .4-.3.7-.7.7H46c-.4 0-.7-.3-.7-.7v-4.2c0-.4.3-.7.7-.7h3.3c.4 0 .7.3.7.7v4.2zm11.1 0c0 .4-.3.7-.7.7H57c-.4 0-.7-.3-.7-.7v-4.2c0-.4.3-.7.7-.7h3.3c.4 0 .7.3.7.7v4.2zm11.2 0c0 .4-.3.7-.7.7h-3.3c-.4 0-.7-.3-.7-.7v-4.2c0-.4.3-.7.7-.7h3.3c.4 0 .7.3.7.7v4.2zm11.1 0c0 .4-.3.7-.7.7h-3.3c-.4 0-.7-.3-.7-.7v-4.2c0-.4.3-.7.7-.7h3.3c.4 0 .7.3.7.7v4.2zm10.5.7h-3.3c-.4 0-.7-.3-.7-.7v-4.2c0-.4.3-.7.7-.7h3.3c.4 0 .7.3.7.7v4.2c0 .4-.3.7-.7.7z"/></g></g></g></svg>