<svg viewBox="0 0 640 480" xmlns="http://www.w3.org/2000/svg">
 <metadata id="metadata8">image/svg+xml</metadata>
 <g>
  <title>Layer 1</title>
  <g id="g10" transform="matrix(1.9408010095897765,0,0,-1.9408010095897765,-156.34505417870247,-23.177053521158808) ">
   <g id="g12" transform="translate(101.5999984741211,-152) scale(0.10000000149011612) ">
    <path fill="#3dc0ea" fill-rule="nonzero" d="m1100.651984,83.875294l-30.94,0l0,-64.14l-11.48,0l0,64.14l-30.94,0l0,8.594l73.36,0l0,-8.594" id="path14"/>
    <path fill="#3dc0ea" fill-rule="nonzero" d="m1255.361984,19.735294l-56.96,0l0,72.734l56.96,0l0,-8.594l-45.47,0l0,-19.921l45.47,0l0,-8.594l-45.47,0l0,-27.031l45.47,0l0,-8.594" id="path16"/>
    <path fill="#3dc0ea" fill-rule="nonzero" d="m1426.511984,24.989294c-2.12,-0.781 -4.05,-1.512 -5.77,-2.192c-1.72,-0.683 -3.97,-1.398 -6.76,-2.148c-2.35,-0.613 -4.92,-1.141 -7.68,-1.582c-2.77,-0.438 -5.81,-0.66 -9.14,-0.66c-6.26,0 -11.96,0.742 -17.08,2.222c-5.13,1.485 -9.58,3.805 -13.37,6.965c-3.72,3.094 -6.62,7.024 -8.7,11.801c-2.09,4.77 -3.14,10.316 -3.14,16.637c0,5.996 1.01,11.351 3.02,16.074c2.01,4.719 4.91,8.711 8.7,11.973c3.67,3.156 8.11,5.566 13.31,7.226c5.21,1.664 10.98,2.492 17.32,2.492c4.64,0 9.27,-0.472 13.89,-1.418c4.62,-0.945 9.76,-2.609 15.4,-4.98l0,-11.492l-0.86,0c-4.76,3.32 -9.48,5.742 -14.16,7.258c-4.68,1.519 -9.69,2.273 -15.02,2.273c-4.37,0 -8.31,-0.594 -11.81,-1.781c-3.5,-1.188 -6.62,-3.032 -9.37,-5.532c-2.66,-2.441 -4.74,-5.523 -6.23,-9.242c-1.49,-3.726 -2.23,-8.023 -2.23,-12.902c0,-5.106 0.82,-9.492 2.46,-13.168c1.64,-3.676 3.76,-6.664 6.36,-8.977c2.7,-2.406 5.86,-4.183 9.48,-5.336c3.61,-1.156 7.43,-1.734 11.45,-1.734c5.53,0 10.72,0.797 15.55,2.383c4.83,1.59 9.35,3.973 13.57,7.148l0.81,0l0,-11.308" id="path18"/>
    <path fill="#3dc0ea" fill-rule="nonzero" d="m1595.121984,19.735294l-11.48,0l0,35.625l-43.13,0l0,-35.625l-11.48,0l0,72.734l11.48,0l0,-28.515l43.13,0l0,28.515l11.48,0l0,-72.734" id="path20"/>
    <path fill="#3dc0ea" fill-rule="nonzero" d="m1770.541984,19.735294l-14.26,0l-40.9,65.066l0,-65.066l-10.78,0l0,72.734l17.85,0l37.31,-59.398l0,59.398l10.78,0l0,-72.734" id="path22"/>
    <path fill="#3dc0ea" fill-rule="nonzero" d="m1943.191984,56.079294c0,9.433 -2.52,16.711 -7.54,21.832c-5.04,5.121 -11.92,7.683 -20.63,7.683c-8.79,0 -15.69,-2.562 -20.71,-7.683c-5.01,-5.121 -7.52,-12.399 -7.52,-21.832c0,-9.532 2.56,-16.825 7.66,-21.879c5.12,-5.059 11.97,-7.59 20.57,-7.59c8.59,0 15.44,2.531 20.54,7.59c5.09,5.054 7.63,12.347 7.63,21.879zm1.04,28.019c3.52,-3.258 6.22,-7.242 8.1,-11.961c1.88,-4.719 2.82,-10.07 2.82,-16.058c0,-5.985 -0.96,-11.348 -2.87,-16.082c-1.93,-4.739 -4.6,-8.684 -8.05,-11.836c-3.57,-3.289 -7.77,-5.762 -12.63,-7.418c-4.86,-1.66 -10.41,-2.493 -16.64,-2.493c-6.08,0 -11.6,0.848 -16.58,2.54c-4.97,1.691 -9.2,4.148 -12.69,7.371c-3.48,3.222 -6.16,7.175 -8.04,11.859c-1.88,4.688 -2.82,10.039 -2.82,16.059c0,5.921 0.93,11.234 2.79,15.937c1.86,4.703 4.57,8.727 8.13,12.082c3.41,3.188 7.64,5.629 12.69,7.317c5.05,1.695 10.55,2.539 16.52,2.539c6.19,0 11.76,-0.852 16.7,-2.563c4.93,-1.707 9.12,-4.141 12.57,-7.293" id="path24"/>
    <path fill="#3dc0ea" fill-rule="nonzero" d="m2114.251984,19.735294l-54.69,0l0,72.734l11.49,0l0,-64.14l43.2,0l0,-8.594" id="path26"/>
    <path fill="#3dc0ea" fill-rule="nonzero" d="m2274.221984,56.079294c0,9.433 -2.52,16.711 -7.55,21.832c-5.04,5.121 -11.91,7.683 -20.62,7.683c-8.79,0 -15.7,-2.562 -20.72,-7.683c-5.01,-5.121 -7.52,-12.399 -7.52,-21.832c0,-9.532 2.56,-16.825 7.67,-21.879c5.12,-5.059 11.97,-7.59 20.57,-7.59c8.59,0 15.43,2.531 20.53,7.59c5.09,5.054 7.64,12.347 7.64,21.879zm1.03,28.019c3.53,-3.258 6.23,-7.242 8.11,-11.961c1.87,-4.719 2.81,-10.07 2.81,-16.058c0,-5.985 -0.95,-11.348 -2.87,-16.082c-1.92,-4.739 -4.6,-8.684 -8.05,-11.836c-3.56,-3.289 -7.77,-5.762 -12.62,-7.418c-4.87,-1.66 -10.41,-2.493 -16.64,-2.493c-6.08,0 -11.6,0.848 -16.59,2.54c-4.97,1.691 -9.19,4.148 -12.68,7.371c-3.49,3.222 -6.16,7.175 -8.05,11.859c-1.87,4.688 -2.81,10.039 -2.81,16.059c0,5.921 0.93,11.234 2.78,15.937c1.87,4.703 4.57,8.727 8.14,12.082c3.41,3.188 7.63,5.629 12.68,7.317c5.06,1.695 10.57,2.539 16.53,2.539c6.19,0 11.75,-0.852 16.7,-2.563c4.93,-1.707 9.12,-4.141 12.56,-7.293" id="path28"/>
    <path fill="#3dc0ea" fill-rule="nonzero" d="m2462.701984,25.047294c-4.72,-1.824 -9.89,-3.41 -15.47,-4.769c-5.6,-1.348 -11.01,-2.028 -16.22,-2.028c-6.74,0 -12.91,0.782 -18.53,2.352c-5.6,1.563 -10.39,3.91 -14.33,7.039c-3.99,3.16 -7.07,7.109 -9.23,11.856c-2.17,4.746 -3.26,10.293 -3.26,16.652c0,11.633 4.04,20.82 12.1,27.551c8.07,6.734 19.14,10.097 33.23,10.097c4.91,0 9.93,-0.496 15.06,-1.488c5.12,-0.996 10.65,-2.684 16.57,-5.062l0,-11.497l-1.05,0c-1.2,0.778 -2.94,1.793 -5.22,3.055c-2.29,1.258 -4.52,2.309 -6.73,3.149c-2.68,1 -5.7,1.832 -9.08,2.496c-3.39,0.656 -7.23,0.988 -11.53,0.988c-9.66,0 -17.32,-2.609 -22.95,-7.836c-5.63,-5.223 -8.44,-12.293 -8.44,-21.211c0,-9.402 2.94,-16.719 8.82,-21.941c5.87,-5.227 13.88,-7.84 24.02,-7.84c3.71,0 7.42,0.308 11.11,0.926c3.69,0.617 6.94,1.414 9.72,2.39l0,17.778l-23.13,0l0,8.593l34.54,0l0,-31.25" id="path30"/>
    <path fill="#3dc0ea" fill-rule="nonzero" d="m2599.471984,19.735294l-34.14,0l0,7.422l11.33,0l0,57.89l-11.33,0l0,7.422l34.14,0l0,-7.422l-11.32,0l0,-57.89l11.32,0l0,-7.422" id="path32"/>
    <path fill="#3dc0ea" fill-rule="nonzero" d="m2762.181984,19.735294l-56.95,0l0,72.734l56.95,0l0,-8.594l-45.47,0l0,-19.921l45.47,0l0,-8.594l-45.47,0l0,-27.031l45.47,0l0,-8.594" id="path34"/>
    <path fill="#3dc0ea" fill-rule="nonzero" d="m2929.431984,40.493294c0,-2.832 -0.78,-5.633 -2.35,-8.403c-1.56,-2.769 -3.76,-5.113 -6.58,-7.035c-3.11,-2.086 -6.71,-3.719 -10.83,-4.89c-4.12,-1.172 -9.08,-1.758 -14.89,-1.758c-6.23,0 -11.83,0.492 -16.81,1.461c-4.97,0.976 -10.03,2.422 -15.18,4.34l0,12.089l0.81,0c4.38,-3.047 9.43,-5.398 15.16,-7.05c5.72,-1.653 11.1,-2.481 16.13,-2.481c7.13,0 12.67,1.125 16.64,3.371c3.97,2.246 5.95,5.242 5.95,8.988c0,3.223 -0.94,5.602 -2.81,7.133c-1.88,1.532 -4.74,2.723 -8.57,3.567c-2.9,0.648 -6.04,1.187 -9.42,1.609c-3.39,0.426 -6.97,0.965 -10.77,1.617c-7.66,1.367 -13.33,3.703 -17.03,7.012c-3.69,3.301 -5.54,7.613 -5.54,12.922c0,6.094 3.06,11.082 9.16,14.973c6.11,3.894 13.87,5.839 23.26,5.839c6.07,0 11.63,-0.488 16.7,-1.464c5.07,-0.969 9.55,-2.176 13.46,-3.606l0,-11.414l-0.81,0c-3.29,2.336 -7.61,4.273 -12.96,5.816c-5.36,1.539 -10.84,2.309 -16.45,2.309c-6.14,0 -11.08,-1.074 -14.81,-3.223c-3.73,-2.152 -5.6,-4.914 -5.6,-8.304c0,-3.028 0.93,-5.407 2.79,-7.133c1.85,-1.723 5.12,-3.043 9.8,-3.957c2.48,-0.457 6,-1.008 10.57,-1.664c4.56,-0.649 8.44,-1.317 11.6,-2c6.43,-1.434 11.26,-3.602 14.51,-6.496c3.25,-2.899 4.87,-6.957 4.87,-12.168" id="path36"/>
    <path fill="#145798" fill-rule="nonzero" d="m1204.611984,243.930294l0,-89.187l-123.83,0c-10.46,0 -19.25,0.965 -26.37,2.91c-7.12,1.933 -12.84,4.793 -17.17,8.582c-4.32,3.781 -7.44,8.586 -9.32,14.406c-1.9,5.809 -2.85,12.598 -2.85,20.352l0,68.125c0,7.754 0.95,14.539 2.85,20.351c1.88,5.821 5,10.625 9.32,14.403c4.33,3.781 10.05,6.652 17.17,8.586c7.12,1.941 15.91,2.91 26.37,2.91l123.83,0l0,-36.563l-103.09,0c-5.77,0 -10.51,-0.558 -14.2,-1.66c-3.7,-1.113 -6.63,-2.773 -8.79,-4.98c-2.17,-2.227 -3.7,-4.903 -4.61,-8.04c-0.9,-3.132 -1.35,-6.738 -1.35,-10.789l0,-36.562c0,-4.063 0.45,-7.656 1.35,-10.793c0.91,-3.145 2.44,-5.82 4.61,-8.035c2.17,-2.207 5.1,-3.867 8.8,-4.981c3.7,-1.113 8.43,-1.66 14.21,-1.66l56.03,0l0,52.625l47.04,0" id="path38"/>
    <path fill="#145798" fill-rule="nonzero" d="m1239.141984,154.743294l47.0313,0l0,160.625l-47.0313,0l0,-160.625z" id="path40"/>
    <path fill="#145798" fill-rule="nonzero" d="m1452.951984,253.961294c0,3.868 -0.44,7.313 -1.35,10.352c-0.9,3.035 -2.47,5.664 -4.73,7.871c-2.26,2.207 -5.22,3.856 -8.93,4.961c-3.69,1.102 -8.41,1.66 -14.18,1.66l-26.76,0c-5.77,0 -10.5,-0.558 -14.2,-1.66c-3.69,-1.105 -6.67,-2.754 -8.92,-4.961c-2.25,-2.207 -3.83,-4.836 -4.73,-7.871c-0.9,-3.039 -1.35,-6.484 -1.35,-10.352l85.15,0zm-85.15,-36.562l0,-62.656l-47.35,0l0,114.375c0,7.754 0.95,14.539 2.85,20.351c1.89,5.821 5,10.625 9.32,14.403c4.33,3.781 10.05,6.652 17.17,8.586c7.12,1.941 15.91,2.91 26.36,2.91l68.41,0c10.46,0 19.2,-0.93 26.23,-2.774c7.02,-1.847 12.7,-4.66 17.03,-8.449c4.32,-3.777 7.43,-8.535 9.32,-14.258c1.9,-5.722 2.85,-12.371 2.85,-19.941l0,-115.203l-47.04,0l0,62.656l-85.15,0" id="path42"/>
    <path fill="#145798" fill-rule="nonzero" d="m1581.861984,154.743294l-47.03,0l0,160.625l47.03,0l84.85,-89.727l0,89.727l47.5,0l0,-160.625l-47.5,0l-84.85,91.386l0,-91.386" id="path44"/>
    <path fill="#145798" fill-rule="nonzero" d="m1813.721984,278.805294l-64.86,0l0,36.563l179.47,0l0,-36.563l-67.58,0l0,-124.062l-47.03,0l0,124.062" id="path46"/>
    <path fill="#145798" fill-rule="nonzero" d="m2283.941984,178.559294l0,-23.816l-124.07,0c-10.45,0 -19.22,0.965 -26.32,2.91c-7.11,1.933 -12.82,4.793 -17.15,8.582c-4.32,3.781 -7.42,8.586 -9.3,14.406c-1.89,5.809 -2.83,12.598 -2.83,20.352l0,114.375l47.5,0l0,-98.586c0,-8.309 1.97,-14.637 5.94,-18.973c3.96,-4.336 11.62,-6.504 22.96,-6.504l103.27,0l0,-12.746" id="path48"/>
    <path fill="#145798" fill-rule="nonzero" d="m2365.671984,217.399294c0,-4.258 0.45,-8.008 1.35,-11.242c0.9,-3.242 2.48,-5.965 4.73,-8.192c2.24,-2.226 5.21,-3.886 8.92,-5c3.7,-1.105 8.42,-1.66 14.18,-1.66l103.27,0l0,-36.562l-124.07,0c-10.47,0 -19.25,0.965 -26.36,2.91c-7.13,1.933 -12.86,4.793 -17.19,8.582c-4.34,3.781 -7.44,8.586 -9.34,14.406c-1.89,5.809 -2.83,12.598 -2.83,20.352l0,68.125c0,7.754 0.94,14.539 2.83,20.351c1.9,5.821 5,10.625 9.34,14.403c4.33,3.781 10.06,6.652 17.19,8.586c7.11,1.941 15.89,2.91 26.36,2.91l124.07,0l0,-36.563l-103.27,0c-5.76,0 -10.48,-0.558 -14.18,-1.66c-3.71,-1.105 -6.68,-2.754 -8.92,-4.961c-2.25,-2.207 -3.83,-4.836 -4.73,-7.871c-0.9,-3.039 -1.35,-6.484 -1.35,-10.352l132.45,0l0,-36.562l-132.45,0" id="path50"/>
    <path fill="#145798" fill-rule="nonzero" d="m2664.891984,253.961294c0,3.868 -0.45,7.313 -1.36,10.352c-0.9,3.035 -2.47,5.664 -4.73,7.871c-2.25,2.207 -5.22,3.856 -8.93,4.961c-3.69,1.102 -8.41,1.66 -14.18,1.66l-26.75,0c-5.79,0 -10.51,-0.558 -14.2,-1.66c-3.69,-1.105 -6.68,-2.754 -8.93,-4.961c-2.25,-2.207 -3.83,-4.836 -4.73,-7.871c-0.89,-3.039 -1.34,-6.484 -1.34,-10.352l85.15,0zm-85.15,-36.562l0,-62.656l-47.35,0l0,114.375c0,7.754 0.94,14.539 2.84,20.351c1.89,5.821 5,10.625 9.33,14.403c4.32,3.781 10.04,6.652 17.17,8.586c7.11,1.941 15.9,2.91 26.35,2.91l68.41,0c10.45,0 19.2,-0.93 26.24,-2.774c7.01,-1.847 12.69,-4.66 17.03,-8.449c4.31,-3.777 7.42,-8.535 9.31,-14.258c1.9,-5.722 2.85,-12.371 2.85,-19.941l0,-115.203l-47.03,0l0,62.656l-85.15,0" id="path52"/>
    <path fill="#145798" fill-rule="nonzero" d="m2793.801984,246.774294l55.66,0c12.62,0 20.65,2.019 24.07,6.074c3.61,4.238 5.41,7.547 5.41,9.942c0,2.39 -1.8,5.703 -5.41,9.941c-3.42,4.043 -11.45,6.074 -24.07,6.074l-55.66,0l0,-32.031zm0,-36.563l0,-55.468l-47.03,0l0,160.625l124.59,0c21.09,0 35.51,-3.965 43.26,-11.895c7.73,-7.941 11.62,-19.375 11.62,-34.316l0,-12.735c0,-14.941 -3.89,-26.379 -11.62,-34.316c-7.75,-7.93 -22.17,-11.895 -43.26,-11.895l-77.56,0" id="path54"/>
    <path fill="#145798" fill-rule="evenodd" d="m861.185984,138.375294c17.238,-12.808 12.64,-43.726 3.343,-50.675l-97.023,-52.985c-18.504,-9.894 -42.156,-8.808 -68.348,14.207c0.047,-0.031 -70.14,82.875 -70.035,82.891c-14.41,17.836 -3.246,44.219 6.344,49.789l75.18,41.367c23.277,12.949 45.015,7.934 60.277,-5.371l90.262,-79.223" id="path56"/>
    <path fill="#145798" fill-rule="evenodd" d="m678.146984,287.172294c13.043,-8.578 18.453,-34.754 6.972,-41.918l-79.785,-47.207c-14.309,-7.015 -32.422,-10.937 -55.383,11.684c0.051,-0.023 -44.992,52.855 -44.914,52.871c-10.836,12.043 -2.301,32.414 7.969,38.043l57.008,31.441c17.996,9.141 43.859,8.305 55.398,-0.621l52.735,-44.293" id="path58"/>
    <path fill="#3dc0ea" fill-rule="evenodd" d="m690.321984,480.180294c19.918,-10.922 14.899,-28.933 7.707,-33.805l-65.504,-38.031c-14.296,-7.008 -28.914,-14.824 -48.679,0.656c0.027,-0.019 -39.801,33.145 -39.719,33.157c-10.832,12.035 -5.926,26.539 1.48,30.468l53.516,32.145c18.004,9.156 43.176,8.543 54.707,-0.375l36.492,-24.215" id="path60"/>
    <path fill="#145798" fill-rule="evenodd" d="m513.985984,183.223294c7.672,-9.769 5.895,-35.781 -4.234,-42.531l-75.566,-42.922c-15.684,-7.383 -35.508,0.535 -46.286,15.949c0.036,-0.023 -35.929,58.387 -35.863,58.395c-6.902,11.293 -2.648,30.57 7.61,35.988l63.093,35.012c16.168,7.043 39.582,6.281 46.438,-1.953l44.808,-57.938" id="path62"/>
    <path fill="#3dc0ea" fill-rule="evenodd" d="m555.196984,391.590294c9.965,-9.871 7.481,-28.144 -2.507,-34.875l-64.43,-37.187c-11.399,-7.227 -31.973,-7.848 -44.274,4.828c0.047,-0.023 -32.004,38.293 -31.914,38.32c-6.367,9.77 -3.297,26.407 5.864,31.414l54.347,30.578c15.157,7.977 32.785,9.868 44.317,0.262l38.597,-33.34" id="path64"/>
    <path fill="#145798" fill-rule="evenodd" d="m346.364984,397.813294c5.856,-7.969 3.078,-22.012 -8.699,-30.098l-56.875,-30.113c-12.648,-5.816 -25.141,-1.957 -28.184,2.973c0.016,-0.024 -21.535,35.945 -21.488,35.953c-3.91,7.769 4.121,18.89 11.535,23.062l42.661,25.024c13.179,6.215 31.722,9.504 38.98,0.855l22.07,-27.656" id="path66"/>
    <path fill="#145798" fill-rule="evenodd" d="m361.685984,86.680294c7.57,-12.48 -1.899,-37.015 -14.086,-43.765l-65.84,-36.469c-16.012,-7.906 -38.852,-2.301 -44.742,7.246c0.035,-0.016 -29.426,69.512 -29.336,69.527c-6.164,12.278 3.468,33.098 13.336,39.571l55.367,32.726c16.195,7.039 37.586,8.004 46.215,-2.781l39.086,-66.055" id="path68"/>
    <path fill="#145798" fill-rule="evenodd" d="m211.970984,3.981294c8.121,-17.352 4.918,-41.934 -10.438,-50.977l-74.426,-40.6168c-10.058,-4.1992 -28.375,-0.4297 -31.699,9.5708c0.016,-0.02 -19.886,71.894 -19.836,71.906c-5.336,17.832 5.453,38.816 16.09,46.258l55.164,32.808c10.192,4.703 31.969,8.715 38.531,-5.465l26.614,-63.484" id="path70"/>
    <path fill="#145798" fill-rule="evenodd" d="m70.376984,-95.862506c3.043,-12.6094 -7,-37.2852 -20.391,-43.4102l-65.2379,-37.49997c-16.1328,-9.19922 -29.91016,4.76563 -31.85547,18.50777c0.03906,-0.0195 -4.89063,73.6016 -4.85157,73.6016c-0.72656,17.1406 9.24219,34.0156 16.41404,38.0666l61.3477,35.773c14.125,5.032 24.0432,-1.832 30.5122,-17.531l14.062,-67.5078" id="path72"/>
    <path fill="#3dc0ea" fill-rule="evenodd" d="m420.028984,310.036294c7.578,-8.684 8.325,-27.325 -6.422,-36.125l-64.234,-36.996c-10.012,-5.872 -29.414,-5.305 -36.781,6.308c0.008,0.004 -26.93,42.266 -26.883,42.27c-6.465,10.582 -1.059,24.164 9.332,30.347l59.516,36.317c9.953,5.586 28.05,2.281 35.226,-5.18l30.246,-36.941" id="path74"/>
    <path fill="#3dc0ea" fill-rule="evenodd" d="m286.169984,229.637294c5.949,-9.472 -0.934,-27.832 -8.375,-32.258l-65.375,-38.55c-9.719,-5.649 -25.699,-3.024 -30.426,5.191c0.016,0 -21.832,49.895 -21.793,49.902c-3.945,11.84 3.739,24.653 9.543,29.008l60.176,36.41c9.535,5.063 23.422,4.614 29.344,-2.601l26.906,-47.102" id="path76"/>
   </g>
  </g>
 </g>
</svg>
