<svg viewBox="0 0 640 480" xmlns="http://www.w3.org/2000/svg">
 <metadata id="metadata8">image/svg+xml</metadata>
 <g>
  <title>Layer 1</title>
  <g id="g10" transform="matrix(1.7959574551507371,0,0,-1.7959574551507371,-159.34245538582263,-11.122632757040137) ">
   <g id="g12" transform="translate(120.31050109863281,0) scale(0.10000000149011612) ">
    <path fill="#369c82" fill-rule="nonzero" d="m559.554911,-1146.909949l-64.68,0c-20.242,0 -22.722,-2.5 -46.187,-26.133c-11.809,-11.855 -206.567,-208.004 -206.567,-208.004l0,327.34c0,10.996 -6.004,17.051 -17.039,17.051l-99.0232,0c-11.03517,0 -17.0508,-6.055 -17.0508,-17.051l0,-44.004c0,-11.113 6.01563,-17.129 17.0508,-17.129l36.2305,0l0,-403.746l-36.0469,0c-11.02346,0 -17.03909,-6.0156 -17.03909,-17.0117l0,-44.0234c0,-11.0352 6.01563,-17.24612 17.03909,-17.24612l151.4646,0c11.047,0 17.102,6.01562 17.102,17.05082l0,44.0429c0,11.1133 -6.055,17.1875 -17.102,17.1875l-35.586,0l0,32.656l77.563,78.77l136.531,-166.8947c17.961,-22.81252 17.961,-22.81252 44.238,-22.81252l58.977,0c10.965,0 17,6.01562 17,17.05082l0,44.0429c0,11.0352 -6.035,17.0313 -17,17.0313l-48.637,0l-135.828,167.6372l124.141,125.855l60.449,0c11.211,0 17.058,5.527 17.058,16.406l0,44.844c0,11.035 -6.042,17.09 -17.058,17.09" id="path14"/>
    <path fill="#369c82" fill-rule="nonzero" d="m1092.952911,-1518.742149l-35.871,0l0,192.5782c0,114.644 -72.207,188.726 -183.886,188.726c-51.493,0 -94.715,-15.878 -128.504,-47.167l0,20.41c0,11.035 -6.036,17.09 -17.032,17.09l-97.695,0c-11.055,0 -17.09,-5.86 -17.09,-16.954l0,-43.984c0,-11.035 6.035,-17.187 17.071,-17.187l35.832,0l0,-293.5122l-35.832,0c-11.036,0 -17.071,-5.9961 -17.071,-17.0313l0,-44.0429c0,-10.9961 6.035,-17.05082 17.071,-17.05082l150.644,0c11.035,0 17.051,6.05472 17.051,17.05082l0,44.0429c0,11.0352 -6.016,17.0313 -17.051,17.0313l-35.898,0l0,178.8472c0,73.454 51.652,126.774 122.754,126.774c69.238,0 110.593,-44.942 110.593,-120.328l0,-185.2932l-35.801,0c-11.074,0 -17.125,-5.9961 -17.125,-17.0313l0,-44.0429c0,-10.9961 6.051,-17.05082 17.125,-17.05082l150.715,0c11.035,0 17.065,6.05472 17.065,17.05082l0,44.0429c0,11.0352 -6.03,17.0313 -17.065,17.0313" id="path16"/>
    <path fill="#369c82" fill-rule="nonzero" d="m1337.677911,-1529.230449c-82.94,0 -147.95,69.6285 -147.95,158.4765c0,88.883 62.96,155.973 146.39,155.973c83.4,0 148.78,-69.59 148.78,-158.395c0,-88.965 -63.28,-156.0545 -147.22,-156.0545zm0,391.1095c-129.03,0 -230.107,-103.281 -230.107,-235.055c0,-130.39 100.397,-232.617 228.547,-232.617c129.56,0 231.02,103.223 231.02,235.039c0,130.465 -100.77,232.633 -229.46,232.633" id="path18"/>
    <path fill="#369c82" fill-rule="nonzero" d="m2236.467911,-1147.104949l-154.78,0c-11.04,0 -17.09,-6.055 -17.09,-17.09l0,-44.004c0,-10.996 6.05,-17.031 17.09,-17.031l34.78,0l-73.76,-238.375l-104.37,303.707c-2.86,8.144 -10.47,13.574 -18.95,13.574l-30.86,0c-8.59,0 -16.21,-5.43 -19.02,-13.574l-103.34,-303.571l-73.8,238.239l34.83,0c11.02,0 17.03,6.035 17.03,17.031l0,44.004c0,11.035 -6.01,17.09 -17.03,17.09l-156.5,0c-11.07,0 -17.13,-6.055 -17.13,-17.09l0,-44.004c0,-10.996 6.06,-17.031 17.13,-17.031l36.76,0l122.67,-360.1138c2.85,-7.8711 10.39,-13.22264 18.79,-13.22264l33.34,0c8.54,0 16.13,5.46874 18.89,13.57424l102.65,295.1132l102.15,-295.1132c2.74,-8.1055 10.35,-13.57424 18.95,-13.57424l33.36,0c8.41,0 15.95,5.35154 18.76,13.18364l122.73,360.1528l36.72,0c11.09,0 17.15,6.035 17.15,17.031l0,44.004c0,11.035 -6.06,17.09 -17.15,17.09" id="path20"/>
    <path fill="#369c82" fill-rule="nonzero" d="m2455.507911,-1518.742149l-35.84,0l0,354.5472c0,11.035 -6.05,17.09 -17.11,17.09l-98.59,0c-11.05,0 -17.07,-6.055 -17.07,-17.09l0,-44.004c0,-10.996 6.02,-17.031 17.07,-17.031l35.9,0l0,-293.5122l-65.16,0c-11.01,0 -17.05,-5.9961 -17.05,-17.0313l0,-44.0429c0,-10.9961 6.04,-17.05082 17.05,-17.05082l180.8,0c11.08,0 17.13,6.05472 17.13,17.05082l0,44.0429c0,11.0352 -6.05,17.0313 -17.13,17.0313" id="path22"/>
    <path fill="#369c82" fill-rule="nonzero" d="m2805.727911,-1368.155949l-43.36,0c-11.06,0 -17.11,-5.996 -17.11,-17.032l0,-83.359c0,-28.652 -20.41,-58.3397 -54.59,-58.3397c-42.91,0 -61.19,17.8515 -61.19,59.5707l0,242.066l104.71,0c11.03,0 17.09,6.055 17.09,17.051l0,44.004c0,11.035 -6.06,17.09 -17.09,17.09l-104.71,0l0,93.554c0,11.035 -6.04,17.09 -17.07,17.09l-45.61,0c-11.07,0 -17.13,-6.055 -17.13,-17.09l0,-93.554l-47.67,0c-11.04,0 -17.09,-6.055 -17.09,-17.09l0,-44.004c0,-10.996 6.05,-17.051 17.09,-17.051l47.67,0l0,-246.07c0,-80.6839 52.78,-132.83237 134.42,-132.83237c84.28,0 138.71,50.44917 138.71,128.57437l0,90.39c0,11.036 -6.02,17.032 -17.07,17.032" id="path24"/>
    <path fill="#369c82" fill-rule="nonzero" d="m2378.777911,-1090.288949c27.61,0 50,22.383 50,50c0,27.559 -22.39,50 -50,50c-27.58,0 -50,-22.441 -50,-50c0,-27.617 22.42,-50 50,-50" id="path26"/>
   </g>
  </g>
 </g>
</svg>
