<svg viewBox="0 0 640 480" xmlns="http://www.w3.org/2000/svg">
 <metadata id="metadata8">image/svg+xml</metadata>
 <g>
  <title>Layer 1</title>
  <g id="g10" transform="matrix(0.9137141499511614,0,0,-0.9137141499511614,-14.29370018050139,175.80108901180242) ">
   <g id="g12" transform="translate(95.04154968261719,-129.60211181640625) scale(0.10000000149011612) ">
    <path fill="#4f4c4c" fill-rule="nonzero" d="m990.363732,-159.101212l93.168,472.449c25.379,128.707 -11.769,171.078 -140.461,171.078l-116.16,0l-126.918,-643.527l-152.273,0l126.922,643.527l-282.528,0l-126.925,-643.527l-152.27,0l150.781,764.414l676.524,0c32.961,0 65.636,-1.594 98.55,-1.594c201.545,-4.683 234.185,-102.015 197.035,-290.371l-93.2,-472.449l-152.245,0" id="path14"/>
    <path fill="#4f4c4c" fill-rule="nonzero" d="m1593.748732,-159.101212c-75.35,0 -148.51,3.125 -206.39,43.9648c-93.73,65.8902 -102.88,202.4332 -79.35,321.7582c51.69,262.121 218.31,398.691 478.89,398.691l219.74,0l-23.84,-120.887l-197.77,0c-150.71,0 -238.5,-31.402 -298.36,-191.476l458.33,0l-23.51,-119.317l-458.34,0c-16.08,-81.621 -8.65,-171.074 72.13,-199.316c27.99,-9.402 91.72,-12.586 124.67,-12.586l219.75,0l-23.83,-120.832l-262.12,0" id="path16"/>
    <path fill="#4f4c4c" fill-rule="nonzero" d="m2544.848732,-148.132412c-47.66,-10.9688 -94.75,-10.9688 -141.84,-10.9688l-420.68,0l23.87,120.832l367.29,0c36.09,0 75.02,-1.562 110.79,4.746c52.12,9.402 65.79,47.09 74.78,92.606c5.27,26.66 6.73,58.086 -11.85,75.3c-36.18,31.411 -294.13,-3.125 -383.37,29.848c-80.45,29.832 -101.42,130.281 -84.72,215.059c12.08,61.175 43.29,123.976 95.92,167.91c65.8,54.961 160.58,58.113 232.79,58.113l384.54,0l-23.85,-120.887l-345.3,0c-91.05,0 -163.92,12.563 -187.45,-106.73c-20.12,-102.051 53.91,-92.586 133.99,-92.586c62.81,0 124.02,0 186.46,-1.594c54.65,-1.562 109.86,0 142.32,-42.363c32.77,-40.801 30.45,-116.145 19.61,-171.102c-18.28,-92.617 -67.87,-193.027 -173.3,-218.1832" id="path18"/>
    <path fill="#4f4c4c" fill-rule="nonzero" d="m3335.338732,-38.269212l-252.74,0c-81.62,0 -148.22,12.586 -129.02,109.883c19.83,100.457 85.37,114.578 173.27,114.578l252.71,0l-44.22,-224.461zm128.38,-120.832l95.35,483.457c14.22,72.18 30.03,152.227 -7.17,210.313c-46,69.05 -146.14,70.644 -229.34,70.644l-390.85,0l-23.82,-120.887l359.42,0c138.13,0 167.69,-17.25 139.82,-158.507l-3.73,-18.868l-271.52,0c-81.64,0 -177.69,-1.535 -247.81,-70.613c-46.67,-45.488 -75.7,-105.18 -87.43,-164.824c-19.52,-98.86 9.59,-182.0705 100.71,-213.4377c55.62,-20.4023 117.46,-17.2773 180.24,-17.2773l386.13,0" id="path20"/>
    <path fill="#4f4c4c" fill-rule="nonzero" d="m4115.758732,-159.101212l86.64,439.504c27.59,139.695 5.75,204.023 -141.79,204.023l-177.38,0l-126.92,-643.527l-152.28,0l150.78,764.414l353.21,0c224.42,0 292.43,-84.766 248.18,-309.226l-89.77,-455.188l-150.67,0" id="path22"/>
    <path fill="none" stroke="#4f4c4c" stroke-width="18" stroke-miterlimit="1" d="m5303.498732,879.958788c0,-259.064 -209.99,-469.06 -469.06,-469.06c-259.06,0 -469.11,209.996 -469.11,469.06c0,259.09 210.05,469.08 469.11,469.08c259.07,0 469.06,-209.99 469.06,-469.08z" id="path24"/>
    <path fill="#c82128" fill-rule="nonzero" d="m5226.658732,887.528788c0,-172.985 -458.56,-273.517 -639.48,-317.415c-142.07,-34.559 191.79,136.812 191.79,309.765c0,172.97 -334.2,349.73 -191.79,316.58c141.03,-32.82 639.48,-136.01 639.48,-308.93" id="path26"/>
   </g>
  </g>
 </g>
</svg>
