<svg viewBox="0 0 640 480" xmlns="http://www.w3.org/2000/svg">

 <g>
  <title>background</title>
  <rect fill="none" id="canvas_background" height="482" width="642" y="-1" x="-1"/>
 </g>
 <g>
  <title>Layer 1</title>
  <g stroke="null" id="svg_1">
   <path fill="#777777" fill-rule="nonzero" id="path5056" d="m587.872739,234.553635l0,-9.421906l-11.700318,0l0,-14.647876l-0.393823,0.121142l-10.989658,3.36219l-0.216372,0.066078l0,11.098466l-17.345402,0l0,-6.182154c0,-2.878916 0.643934,-5.082154 1.912367,-6.551412c1.260011,-1.451766 3.062249,-2.189634 5.360069,-2.189634c1.652591,0 3.363486,0.38934 5.084746,1.157008l0.431449,0.192403l0,-9.922671l-0.202768,-0.074499c-1.605948,-0.577208 -3.791047,-0.86808 -6.498291,-0.86808c-3.41272,0 -6.513838,0.742403 -9.217842,2.214252c-2.705948,1.473792 -4.834687,3.577914 -6.325322,6.253414c-1.486101,2.672261 -2.240164,5.758479 -2.240164,9.173791l0,6.797584l-8.146995,0l0,9.421906l8.146995,0l0,39.692629l11.695757,0l0,-39.692629l17.345402,0l0,25.224199c0,10.388455 4.900117,15.653294 14.56366,15.653294c1.588457,0 3.259212,-0.186572 4.966194,-0.551296c1.736834,-0.373793 2.919754,-0.747585 3.616136,-1.146643l0.154181,-0.090695l0,-9.509362l-0.4755,0.314841c-0.634864,0.423675 -1.425206,0.768963 -2.352211,1.0255c-0.930944,0.26172 -1.708329,0.393227 -2.310129,0.393227c-2.26416,0 -3.938751,-0.610247 -4.978529,-1.813898c-1.050765,-1.214664 -1.583896,-3.339516 -1.583896,-6.31107l0,-23.188098l11.700266,0zm-86.606776,31.313974c-4.24517,0 -7.591812,-1.407715 -9.950528,-4.180388c-2.372968,-2.786925 -3.575323,-6.76001 -3.575323,-11.80783c0,-5.207832 1.202355,-9.28392 3.576619,-12.12008c2.360011,-2.817373 5.67491,-4.247113 9.854002,-4.247113c4.055358,0 7.283449,1.365606 9.595522,4.061189c2.324381,2.709187 3.503415,6.752884 3.503415,12.021611c0,5.333509 -1.109069,9.430328 -3.296112,12.17061c-2.171495,2.7202 -5.43716,4.102001 -9.707595,4.102001m0.520848,-41.919189c-8.099056,0 -14.531917,2.372968 -19.11784,7.053473c-4.583332,4.681153 -6.907713,11.158714 -6.907713,19.255178c0,7.689633 2.268668,13.875026 6.743167,18.381268c4.474498,4.508185 10.564014,6.791753 18.097522,6.791753c7.85094,0 14.155533,-2.406007 18.740161,-7.151294c4.58398,-4.740753 6.906418,-11.15677 6.906418,-19.064071c0,-7.810128 -2.179269,-14.041516 -6.479504,-18.517958c-4.302178,-4.478385 -10.353472,-6.748349 -17.98221,-6.748349m-44.882648,-0.000259c-5.509068,0 -10.06584,1.40901 -13.547229,4.187514c-3.502119,2.794699 -5.278444,6.460717 -5.278444,10.896346c0,2.305594 0.38351,4.354004 1.138221,6.090811c0.759246,1.743286 1.934393,3.277325 3.494993,4.565193c1.549587,1.277503 3.940046,2.6159 7.109186,3.976972c2.663191,1.096113 4.650058,2.023792 5.912013,2.754534c1.233451,0.715842 2.109305,1.436219 2.603592,2.137161c0.480035,0.686042 0.724264,1.624735 0.724264,2.784334c0,3.299351 -2.470789,4.904651 -7.555534,4.904651c-1.885806,0 -4.037219,-0.393227 -6.393991,-1.169964c-2.358068,-0.775442 -4.561306,-1.890341 -6.547525,-3.320082l-0.485218,-0.34788l0,11.259774l0.178151,0.082921c1.655182,0.763781 3.741165,1.407715 6.200293,1.914958c2.454593,0.507244 4.684392,0.765724 6.622024,0.765724c5.97809,0 10.792047,-1.416136 14.304531,-4.210835c3.535158,-2.814134 5.327031,-6.566312 5.327031,-11.156122c0,-3.310364 -0.964605,-6.149763 -2.865959,-8.439162c-1.88775,-2.27126 -5.164428,-4.355947 -9.735451,-6.198997c-3.641401,-1.461484 -5.974204,-2.674852 -6.936217,-3.605771c-0.927679,-0.899823 -1.398645,-2.172143 -1.398645,-3.783274c0,-1.428445 0.581095,-2.572496 1.775029,-3.499528c1.203003,-0.931566 2.876972,-1.405123 4.977207,-1.405123c1.948645,0 3.942637,0.307715 5.924969,0.910836c1.981684,0.603121 3.721731,1.410954 5.174793,2.399528l0.477444,0.326502l0,-10.68127l-0.183333,-0.079034c-1.340341,-0.574617 -3.107596,-1.066313 -5.253827,-1.465371c-2.137809,-0.395171 -4.076736,-0.595347 -5.762366,-0.595347m-49.316007,41.919448c-4.243874,0 -7.591812,-1.407715 -9.94988,-4.180388c-2.373615,-2.786925 -3.574027,-6.758715 -3.574027,-11.80783c0,-5.207832 1.201708,-9.28392 3.576619,-12.12008c2.358068,-2.817373 5.672319,-4.247113 9.853355,-4.247113c4.054063,0 7.282154,1.365606 9.594874,4.061189c2.324381,2.709187 3.503415,6.752884 3.503415,12.021611c0,5.333509 -1.109717,9.430328 -3.29676,12.17061c-2.171495,2.7202 -5.435864,4.102001 -9.707595,4.102001m0.522144,-41.919189c-8.100999,0 -14.53386,2.372968 -19.11784,7.053473c-4.583332,4.681153 -6.909009,11.158714 -6.909009,19.255178c0,7.692872 2.269964,13.875026 6.744462,18.381268c4.474498,4.508185 10.563366,6.791753 18.097522,6.791753c7.848997,0 14.155533,-2.406007 18.740161,-7.151294c4.582684,-4.740753 6.906418,-11.15677 6.906418,-19.064071c0,-7.810128 -2.179917,-14.041516 -6.480799,-18.517958c-4.303474,-4.478385 -10.353472,-6.748349 -17.980915,-6.748349m-43.780638,9.688549l0,-8.505239l-11.553236,0l0,49.113239l11.553236,0l0,-25.123139c0,-4.272378 0.968492,-7.781624 2.879564,-10.432506c1.887102,-2.61914 4.401942,-3.946524 7.471965,-3.946524c1.0404,0 2.208421,0.171673 3.473615,0.511131c1.252238,0.337515 2.159187,0.703533 2.694287,1.088987l0.485218,0.351767l0,-11.64717l-0.18722,-0.08033c-1.07603,-0.457361 -2.597761,-0.687986 -4.523733,-0.687986c-2.902885,0 -5.501294,0.932862 -7.726559,2.769434c-1.95318,1.614369 -3.365429,3.827973 -4.444699,6.588338l-0.122438,0zm-32.242363,-9.688808c-5.299822,0 -10.027618,1.136926 -14.04929,3.37709c-4.029445,2.245347 -7.145464,5.451412 -9.265781,9.528149c-2.1106,4.067019 -3.182096,8.817489 -3.182096,14.11472c0,4.64034 1.039105,8.899115 3.092697,12.65194c2.054888,3.759304 4.963603,6.700411 8.645169,8.740398c3.676383,2.037396 7.92544,3.070671 12.629915,3.070671c5.490281,0 10.177913,-1.098056 13.936569,-3.262426l0.15159,-0.087456l0,-10.584096l-0.485218,0.354358c-1.702473,1.239929 -3.605123,2.229799 -5.652237,2.94305c-2.041931,0.712603 -3.903768,1.072791 -5.535629,1.072791c-4.53345,0 -8.17226,-1.418728 -10.814073,-4.214722c-2.647644,-2.800529 -3.989928,-6.732154 -3.989928,-11.680209c0,-4.979151 1.399941,-9.011835 4.15901,-11.987924c2.749999,-2.967019 6.395935,-4.471907 10.835451,-4.471907c3.797526,0 7.497878,1.285924 10.998702,3.825382l0.483922,0.351767l0,-11.152235l-0.156125,-0.088104c-1.317668,-0.73722 -3.114075,-1.346172 -5.34517,-1.808068c-2.22073,-0.460601 -4.392873,-0.693168 -6.457478,-0.693168m-34.454091,1.183698l-11.553236,0l0,49.113239l11.553236,0l0,-49.113239zm-5.658715,-20.922669c-1.901354,0 -3.559775,0.647173 -4.922143,1.929858c-1.368198,1.286572 -2.062661,2.906124 -2.062661,4.817196c0,1.881272 0.686042,3.471024 2.040636,4.723262c1.346172,1.248351 3.009776,1.881272 4.944168,1.881272c1.933745,0 3.603827,-0.632921 4.966194,-1.879328c1.371437,-1.254181 2.066548,-2.843933 2.066548,-4.725205c0,-1.844346 -0.676325,-3.447702 -2.010188,-4.76537c-1.33192,-1.315076 -3.022084,-1.981684 -5.022555,-1.981684m-28.825373,17.299148l0,52.736501l11.790339,0l0,-68.531668l-16.317958,0l-20.741927,50.903168l-20.128441,-50.903168l-16.982623,0l0,68.531668l11.079679,0l0,-52.741684l0.380919,0l21.255001,52.741684l8.361423,0l20.923317,-52.736501l0.380271,0z"/>
   <path fill="#F35325" fill-rule="nonzero" id="path5058" d="m106.475537,237.159948l-54.348279,0l0,-54.348279l54.348279,0l0,54.348279z"/>
   <path fill="#81BC06" fill-rule="nonzero" id="path5060" d="m166.482531,237.159948l-54.347632,0l0,-54.348279l54.347632,0l0,54.348279z"/>
   <path fill="#05A6F0" fill-rule="nonzero" id="path5062" d="m106.474242,297.18832l-54.346984,0l0,-54.348279l54.346984,0l0,54.348279z"/>
   <path fill="#FFBA08" fill-rule="nonzero" id="path5064" d="m166.482531,297.18832l-54.347632,0l0,-54.348279l54.347632,0l0,54.348279z"/>
  </g>
 </g>
</svg>
