<svg viewBox="0 0 640 480" xmlns="http://www.w3.org/2000/svg">
 <style type="text/css">.st0{fill:#203B52;}
	.st1{fill:#079880;}
	.st2{fill:#A22A9A;}
	.st3{fill:#00A996;}
	.st4{fill:#EFF4F2;}
	.st5{fill:#1477B2;}
	.st6{fill:#0C8DD1;}
	.st7{fill:#18405E;}</style>
 <g>
  <title>Layer 1</title>
  <g transform="matrix(5.676934201866146,0,0,-5.676934201866146,-63.17503922423499,227.5741001866973) " id="g10">
   <g transform="translate(24.758085250854492,-24.311992645263672) scale(0.10000000149011612) " id="g12">
    <path d="m86.937409,170.081506c1.1,-2 2.4,-4.4 3.8,-7.3c1.4,-2.9 2.8,-5.9 4.3,-9c1.5,-3.2 2.9,-6.4 4.3,-9.6c1.4,-3.3 2.8,-6.3 4,-9c1.2,2.8 2.5,5.8 3.9,9c1.4,3.3 2.8,6.5 4.3,9.6c1.5,3.2 2.9,6.2 4.3,9c1.4,2.9 2.7,5.3 3.8,7.3l8.9,0c0.5,-4 0.9,-8.2 1.4,-12.7c0.4,-4.5 0.8,-9 1.2,-13.7c0.3,-4.7 0.7,-9.4 1,-14.1c0.3,-4.7 0.5,-9.3 0.8,-13.8l-9.7,0c-0.2,6.3 -0.5,12.8 -0.8,19.5c-0.3,6.7 -0.7,13.2 -1.3,19.4c-0.6,-1.2 -1.3,-2.6 -2,-4.3c-0.8,-1.7 -1.6,-3.5 -2.5,-5.4c-0.9,-2 -1.8,-4 -2.7,-6.1c-0.9,-2.1 -1.8,-4.1 -2.7,-6.1c-0.9,-2 -1.7,-3.8 -2.4,-5.5c-0.7,-1.7 -1.4,-3.1 -1.9,-4.3l-7.4,0c-0.5,1.2 -1.1,2.7 -1.9,4.4c-0.7,1.7 -1.5,3.6 -2.4,5.5c-0.9,2 -1.7,4 -2.7,6.1c-0.9,2.1 -1.8,4.1 -2.7,6c-0.9,1.9 -1.7,3.7 -2.5,5.4c-0.8,1.7 -1.5,3.1 -2,4.3c-0.6,-6.3 -1,-12.7 -1.3,-19.4c-0.3,-6.7 -0.5,-13.2 -0.8,-19.5l-9.7,0c0.2,4.5 0.5,9.1 0.8,13.9c0.3,4.8 0.6,9.6 1,14.3c0.3,4.7 0.7,9.3 1.2,13.7c0.4,4.4 0.9,8.5 1.4,12.3l9,0.1" class="st0" id="path14"/>
    <path d="m156.037409,142.981506c0,-3 0.4,-5.7 1.1,-8.1c0.7,-2.4 1.8,-4.5 3.2,-6.2c1.4,-1.7 3.1,-3 5.1,-4c2,-0.9 4.2,-1.4 6.7,-1.4c2.5,0 4.7,0.5 6.7,1.4c2,0.9 3.7,2.3 5.1,4c1.4,1.7 2.4,3.8 3.2,6.2c0.7,2.4 1.1,5.1 1.1,8.1c0,3 -0.4,5.7 -1.1,8.1c-0.7,2.4 -1.8,4.5 -3.2,6.2c-1.4,1.7 -3.1,3 -5.1,4c-2,0.9 -4.2,1.4 -6.7,1.4c-2.5,0 -4.8,-0.5 -6.7,-1.4c-2,-0.9 -3.7,-2.3 -5.1,-4c-1.4,-1.7 -2.4,-3.8 -3.2,-6.2c-0.7,-2.5 -1.1,-5.2 -1.1,-8.1zm42.4,0c0,-4.6 -0.7,-8.7 -2.1,-12.3c-1.4,-3.6 -3.3,-6.5 -5.6,-8.9c-2.4,-2.4 -5.2,-4.2 -8.3,-5.4c-3.2,-1.2 -6.6,-1.8 -10.2,-1.8c-3.6,0 -7,0.6 -10.2,1.8c-3.2,1.2 -6,3 -8.4,5.4c-2.4,2.4 -4.3,5.3 -5.7,8.9c-1.4,3.6 -2.1,7.7 -2.1,12.3c0,4.6 0.7,8.7 2.1,12.3c1.4,3.5 3.3,6.5 5.8,8.9c2.4,2.4 5.2,4.2 8.4,5.4c3.2,1.2 6.6,1.8 10.1,1.8c3.6,0 6.9,-0.6 10.1,-1.8c3.2,-1.2 6,-3 8.3,-5.4c2.4,-2.4 4.3,-5.4 5.7,-8.9c1.4,-3.6 2.1,-7.7 2.1,-12.3" class="st0" id="path16"/>
    <path d="m224.937409,140.181506l0,-16.5c1.1,-0.1 2.3,-0.2 3.5,-0.2c1.3,-0.1 2.4,-0.1 3.4,-0.1c2,0 3.9,0.1 5.7,0.4c1.7,0.3 3.3,0.7 4.5,1.4c1.3,0.7 2.3,1.5 3.1,2.6c0.8,1.1 1.1,2.5 1.1,4.2c0,3.1 -1.1,5.2 -3.4,6.4c-2.2,1.2 -5.4,1.8 -9.3,1.8l-8.6,0zm0,7.8l7,0c3.8,0 6.7,0.5 8.9,1.6c2.1,1.1 3.2,3 3.2,5.8c0,2.6 -1.1,4.5 -3.3,5.6c-2.2,1.1 -5.1,1.6 -8.7,1.6c-1.5,0 -2.9,0 -4,-0.1c-1.2,-0.1 -2.2,-0.1 -3,-0.2c-0.1,-0.1 -0.1,-14.3 -0.1,-14.3zm6.7,-32.9c-2.9,0 -5.8,0.1 -8.7,0.3c-2.9,0.2 -5.5,0.6 -7.7,1.1l0,52.7c1.1,0.2 2.4,0.4 3.7,0.6c1.3,0.2 2.6,0.3 4,0.4c1.4,0.1 2.7,0.2 4,0.2c1.3,0.1 2.6,0.1 3.8,0.1c3.3,0 6.3,-0.2 9.2,-0.7c2.8,-0.5 5.3,-1.3 7.3,-2.5c2.1,-1.2 3.7,-2.7 4.8,-4.5c1.1,-1.9 1.7,-4.2 1.7,-7c0,-2.6 -0.6,-4.8 -1.8,-6.6c-1.2,-1.8 -2.9,-3.3 -5.1,-4.4c3.3,-1.1 5.7,-2.7 7.3,-4.9c1.6,-2.1 2.4,-4.9 2.4,-8.1c0,-5.6 -2,-9.8 -6.1,-12.6c-4.2,-2.7 -10.4,-4.1 -18.8,-4.1" class="st0" id="path18"/>
    <path d="m276.437409,115.781506l9.9,0l0,54.3l-9.9,0c0,0 0,-54.3 0,-54.3z" class="st0" id="path20"/>
    <path d="m343.637409,124.281506l0,-8.5l-34.3,0l0,54.3l9.9,0l0,-45.8l24.4,0" class="st0" id="path22"/>
    <path d="m360.537409,115.781506l0,54.3l34.9,0l0,-8.4l-25,0l0,-13.4l22.2,0l0,-8.2l-22.2,0l0,-15.9l26.9,0l0,-8.4l-36.8,0" class="st0" id="path24"/>
    <path d="m455.237409,170.081506c1.1,-2 2.4,-4.4 3.8,-7.3c1.4,-2.9 2.8,-5.9 4.3,-9c1.5,-3.2 2.9,-6.4 4.3,-9.6c1.4,-3.3 2.8,-6.3 4,-9c1.2,2.8 2.5,5.8 3.9,9c1.4,3.3 2.8,6.5 4.3,9.6c1.5,3.2 2.9,6.2 4.3,9c1.4,2.9 2.7,5.3 3.8,7.3l8.9,0c0.5,-4 0.9,-8.2 1.4,-12.7c0.4,-4.5 0.8,-9 1.2,-13.7c0.3,-4.7 0.7,-9.4 1,-14.1c0.3,-4.7 0.5,-9.3 0.8,-13.8l-9.7,0c-0.2,6.3 -0.5,12.8 -0.8,19.5c-0.3,6.7 -0.7,13.2 -1.3,19.4c-0.6,-1.2 -1.3,-2.6 -2,-4.3c-0.8,-1.7 -1.6,-3.5 -2.5,-5.4c-0.9,-2 -1.8,-4 -2.7,-6.1c-0.9,-2.1 -1.8,-4.1 -2.7,-6.1c-0.9,-2 -1.7,-3.8 -2.4,-5.5c-0.7,-1.7 -1.4,-3.1 -1.9,-4.3l-7.4,0c-0.5,1.2 -1.1,2.7 -1.9,4.4c-0.7,1.7 -1.5,3.6 -2.4,5.5c-0.9,2 -1.8,4 -2.7,6.1c-0.9,2.1 -1.8,4.1 -2.7,6c-0.9,1.9 -1.7,3.7 -2.5,5.4c-0.8,1.7 -1.5,3.1 -2,4.3c-0.6,-6.3 -1,-12.7 -1.3,-19.4c-0.3,-6.7 -0.5,-13.2 -0.8,-19.5l-9.7,0c0.2,4.5 0.5,9.1 0.8,13.9c0.3,4.8 0.6,9.6 1,14.3c0.3,4.7 0.7,9.3 1.2,13.7c0.4,4.4 0.9,8.5 1.4,12.3l9,0.1" class="st0" id="path26"/>
    <path d="m518.437409,115.781506l0,54.3l34.9,0l0,-8.4l-25,0l0,-13.4l22.2,0l0,-8.2l-22.2,0l0,-15.9l26.9,0l0,-8.4l-36.8,0" class="st0" id="path28"/>
    <path d="m572.337409,115.781506l0,54.3l34.9,0l0,-8.4l-25,0l0,-13.4l22.2,0l0,-8.2l-22.2,0l0,-15.9l26.9,0l0,-8.4l-36.8,0" class="st0" id="path30"/>
    <path d="m665.837409,170.081506l0,-8.5l-16.7,0l0,-45.8l-10,0l0,45.8l-16.7,0l0,8.5l43.4,0" class="st0" id="path32"/>
    <path d="m702.137409,114.581506c-3.7,0 -6.9,0.5 -9.6,1.6c-2.7,1.1 -4.9,2.6 -6.6,4.5c-1.7,1.9 -3,4.2 -3.9,6.8c-0.8,2.6 -1.3,5.5 -1.3,8.6l0,33.9l9.9,0l0,-33c0,-2.5 0.3,-4.6 0.8,-6.3c0.5,-1.8 1.3,-3.2 2.4,-4.3c1,-1.1 2.2,-1.9 3.6,-2.4c1.4,-0.5 2.9,-0.8 4.7,-0.8c1.7,0 3.3,0.3 4.7,0.8c1.4,0.5 2.6,1.3 3.6,2.4c1,1.1 1.8,2.5 2.4,4.3c0.5,1.7 0.8,3.9 0.8,6.3l0,33l9.9,0l0,-33.9c0,-3.1 -0.4,-6 -1.3,-8.6s-2.2,-4.9 -3.9,-6.8c-1.8,-1.9 -4,-3.4 -6.7,-4.5c-2.6,-1.1 -5.8,-1.6 -9.5,-1.6" class="st0" id="path34"/>
    <path d="m757.537409,162.081506c-2.5,0 -4.6,-0.1 -6.2,-0.2l0,-18.5l4.8,0c4.8,0 8.4,0.7 11,2c2.6,1.3 3.8,3.9 3.8,7.6c0,1.8 -0.3,3.3 -1,4.5c-0.7,1.2 -1.6,2.1 -2.8,2.8c-1.2,0.7 -2.6,1.2 -4.3,1.4c-1.7,0.2 -3.4,0.4 -5.3,0.4zm-0.7,8.5c7.9,0 13.9,-1.4 18.1,-4.3c4.2,-2.9 6.3,-7.4 6.3,-13.5c0,-3.2 -0.6,-5.9 -1.7,-8.2c-1.1,-2.3 -2.8,-4.1 -4.9,-5.6c-2.1,-1.4 -4.8,-2.5 -7.8,-3.2c-3.1,-0.7 -6.6,-1 -10.6,-1l-4.9,0l0,-19.1l-9.9,0l0,53.5c2.3,0.5 4.8,0.9 7.6,1.1c2.9,0.2 5.4,0.3 7.8,0.3" class="st0" id="path36"/>
    <path d="m421.037409,271.181506l-43.3,-43.3c15.3,-9.2 33.2,-14.5 52.4,-14.5c14.4,0 28,3 40.4,8.3l-49.5,49.5" class="st1" id="path38"/>
    <path d="m482.337409,327.081506c-3.5,0 -6.8,-1.4 -9.2,-3.8l-6.8,-6.8l52,-52.1c4.1,7 7.3,14.6 9.6,22.5l-36.4,36.4c-2.5,2.4 -5.8,3.8 -9.2,3.8" class="st2" id="path40"/>
    <path d="m395.437409,292.581506c-2.7,0 -5.1,-1 -7,-2.9l-37.9,-37.9c4.8,-6 10.3,-11.5 16.3,-16.3l44.9,44.9l-9.3,9.3c-1.8,1.9 -4.3,2.9 -7,2.9" class="st3" id="path42"/>
    <path d="m374.037409,346.381506c8.3,8.3 19.4,12.9 31.1,12.9c11.8,0 22.8,-4.6 31.1,-12.9l20.7,-20.7l6.8,6.8c4.9,4.9 11.5,7.6 18.4,7.6c7,0 13.5,-2.7 18.4,-7.6l30.3,-30.3c0.5,4.2 0.8,8.6 0.8,12.9c0,56.2 -45.6,101.8 -101.8,101.8c-56.2,0 -101.8,-45.6 -101.8,-101.8c0,-4.6 0.3,-9.1 0.9,-13.5l45.1,44.8" class="st4" id="path44"/>
    <path d="m425.637409,275.781506l51.1,-51.1c11.5,5.9 21.7,13.9 30.1,23.6l-54.4,54.4l-26.8,-26.9" class="st5" id="path46"/>
    <path d="m405.137409,339.681506c-6.5,0 -12.7,-2.5 -17.3,-7.2l-53.1,-53.1c3,-8 7,-15.5 11.8,-22.5l37.3,37.3c3.1,3.1 7.2,4.8 11.6,4.8c4.4,0 8.5,-1.7 11.6,-4.8l9.3,-9.3l26.8,26.8l-20.7,20.7c-4.6,4.8 -10.7,7.3 -17.3,7.3" class="st6" id="path48"/>
    <path d="m375.237409,46.681506c0,-2.5 0.3,-4.7 0.9,-6.7c0.6,-2 1.5,-3.7 2.7,-5.1c1.1,-1.4 2.6,-2.5 4.2,-3.2c1.7,-0.8 3.5,-1.1 5.6,-1.1c2.1,0 3.9,0.4 5.5,1.1c1.6,0.8 3,1.8 4.2,3.2c1.1,1.4 2,3.1 2.7,5.1c0.6,2 0.9,4.2 0.9,6.7c0,2.5 -0.3,4.7 -0.9,6.7c-0.6,2 -1.5,3.7 -2.7,5.1c-1.1,1.4 -2.5,2.5 -4.2,3.2c-1.6,0.8 -3.5,1.1 -5.5,1.1c-2.1,0 -3.9,-0.4 -5.6,-1.1c-1.7,-0.8 -3.1,-1.8 -4.2,-3.2c-1.1,-1.4 -2,-3.1 -2.7,-5.1c-0.6,-2 -0.9,-4.2 -0.9,-6.7zm-5.9,0c0,3.5 0.5,6.5 1.5,9.2c1,2.6 2.4,4.9 4.2,6.6c1.8,1.8 3.8,3.1 6.2,4c2.4,0.9 4.9,1.3 7.5,1.3c2.6,0 5.1,-0.4 7.4,-1.3c2.3,-0.9 4.3,-2.2 6.1,-4c1.8,-1.8 3.1,-4 4.2,-6.6c1,-2.6 1.5,-5.7 1.5,-9.2c0,-3.5 -0.5,-6.5 -1.5,-9.2c-1,-2.7 -2.4,-4.9 -4.2,-6.6c-1.8,-1.8 -3.8,-3.1 -6.1,-4c-2.3,-0.9 -4.8,-1.3 -7.4,-1.3c-2.7,0 -5.1,0.4 -7.5,1.3c-2.4,0.9 -4.4,2.2 -6.2,4c-1.8,1.8 -3.2,4 -4.2,6.6c-1,2.7 -1.5,5.8 -1.5,9.2" class="st7" id="path50"/>
    <path d="m423.137409,30.381506c2.2,0 3.9,0.3 4.9,0.9c1.1,0.6 1.6,1.5 1.6,2.8c0,1.3 -0.5,2.4 -1.6,3.2c-1,0.8 -2.8,1.7 -5.2,2.6c-1.2,0.5 -2.3,0.9 -3.4,1.4c-1.1,0.5 -2,1.1 -2.8,1.7c-0.8,0.7 -1.4,1.5 -1.9,2.4c-0.5,0.9 -0.7,2.1 -0.7,3.4c0,2.7 1,4.8 3,6.4c2,1.6 4.7,2.4 8.1,2.4c0.9,0 1.7,0 2.6,-0.1c0.9,-0.1 1.7,-0.2 2.4,-0.4c0.7,-0.1 1.4,-0.3 2,-0.4c0.6,-0.2 1,-0.3 1.3,-0.4l-1,-4.7c-0.6,0.3 -1.5,0.6 -2.7,1c-1.2,0.3 -2.7,0.5 -4.5,0.5c-1.5,0 -2.8,-0.3 -4,-0.9c-1.1,-0.6 -1.7,-1.5 -1.7,-2.8c0,-0.7 0.1,-1.2 0.4,-1.8c0.3,-0.5 0.6,-1 1.2,-1.4c0.5,-0.4 1.2,-0.8 2,-1.1c0.8,-0.4 1.7,-0.7 2.8,-1.1c1.4,-0.5 2.7,-1.1 3.9,-1.6c1.1,-0.5 2.1,-1.1 2.9,-1.8c0.8,-0.7 1.4,-1.5 1.8,-2.5c0.4,-1 0.6,-2.2 0.6,-3.6c0,-2.8 -1,-4.9 -3.1,-6.4c-2.1,-1.4 -5,-2.2 -8.9,-2.2c-2.7,0 -4.8,0.2 -6.3,0.7c-1.5,0.4 -2.6,0.8 -3.1,1l1,4.7c0.6,-0.2 1.6,-0.6 3,-1.1c1.3,-0.6 3.1,-0.8 5.4,-0.8" class="st7" id="path52"/>
    <path d="m451.137409,25.881506c-3.3,0.1 -5.7,0.8 -7.1,2.2c-1.4,1.4 -2.1,3.5 -2.1,6.4l0,36.4l5.4,0.9l0,-36.5c0,-0.9 0.1,-1.6 0.2,-2.2c0.2,-0.6 0.4,-1.1 0.8,-1.4c0.3,-0.4 0.8,-0.6 1.4,-0.8c0.6,-0.2 1.3,-0.3 2.2,-0.4l-0.8,-4.6" class="st7" id="path54"/>
    <path d="m479.137409,41.681506c0,3.4 -0.8,6.1 -2.3,8.2c-1.5,2 -3.6,3 -6.3,3s-4.7,-1 -6.3,-3c-1.5,-2 -2.3,-4.7 -2.3,-8.2c0,-3.4 0.8,-6.1 2.3,-8.1c1.5,-2 3.6,-3 6.3,-3s4.7,1 6.3,3c1.6,1.9 2.3,4.6 2.3,8.1zm5.7,0c0,-2.4 -0.4,-4.6 -1.1,-6.5c-0.7,-1.9 -1.7,-3.6 -3,-5c-1.3,-1.4 -2.8,-2.5 -4.5,-3.2c-1.8,-0.8 -3.7,-1.1 -5.7,-1.1c-2.1,0 -4,0.4 -5.7,1.1c-1.8,0.8 -3.3,1.8 -4.5,3.2c-1.3,1.4 -2.3,3.1 -3,5c-0.7,1.9 -1.1,4.1 -1.1,6.5c0,2.4 0.4,4.5 1.1,6.5c0.7,2 1.7,3.6 3,5.1c1.3,1.4 2.8,2.5 4.5,3.2c1.8,0.8 3.7,1.1 5.7,1.1c2.1,0 4,-0.4 5.7,-1.1c1.8,-0.8 3.3,-1.8 4.5,-3.2c1.3,-1.4 2.3,-3.1 3,-5.1c0.7,-2 1.1,-4.2 1.1,-6.5" class="st7" id="path56"/>
    <path d="m73.837409,89.381506l706.5,0l0,4.1l-706.5,0l0,-4.1z" class="st0" id="path58"/>
   </g>
  </g>
 </g>
</svg>
