<svg viewBox="0 0 640 480" xmlns="http://www.w3.org/2000/svg">
  <style type="text/css">.st0{fill:#56575C;}</style>

  <g>
   <title>background</title>
   <rect fill="none" id="canvas_background" height="482" width="642" y="-1" x="-1"/>
  </g>
  <g>
   <title>Layer 1</title>
   <g stroke="null" id="svg_1">
    <path stroke="null" id="svg_2" d="m103.446039,192.70699c1.426957,2.219711 2.06116,4.175171 2.853914,8.350342c5.602128,-5.443578 12.472663,-8.350342 20.030252,-8.350342c6.817685,0 12.366963,2.219711 16.700685,6.711984c1.162706,1.109856 2.272562,2.589663 3.276717,4.01662c7.504738,-7.716139 14.216722,-10.728604 23.254118,-10.728604c6.394882,0 12.472663,1.90261 16.225032,5.126476c4.650824,4.01662 6.130631,8.825995 6.130631,20.030252l0,58.346696l-20.875856,0l0,-54.171525c0,-9.83015 -1.162706,-11.732759 -6.764834,-11.732759c-4.01662,0 -9.618749,2.748214 -14.269572,6.923385l0,59.033749l-20.400203,0l0,-53.431621c0,-10.252952 -1.479808,-12.631214 -7.451888,-12.631214c-3.96377,0 -9.460198,2.06116 -14.058171,6.236332l0,59.826503l-20.981556,0l0,-57.28969c0,-11.83846 -0.792754,-16.964936 -3.065316,-20.981556l19.396048,-5.285027z" class="st0"/>
    <path stroke="null" id="svg_3" d="m268.603126,204.862552c6.553433,7.716139 9.513048,16.647834 9.513048,29.966102c0,14.111022 -3.223866,23.72977 -10.305802,31.763011c-6.236332,7.029086 -14.428123,11.415658 -27.059337,11.415658c-22.302813,0 -36.889487,-16.700685 -36.889487,-42.491615c0,-25.843781 14.692374,-42.967268 36.889487,-42.967268c11.679909,-0.05285 20.823006,3.96377 27.852091,12.314112zm-38.633546,11.83846c-1.479808,4.333722 -2.272562,10.094401 -2.272562,18.286193c0,9.460198 0.951305,16.542134 2.695364,20.664455c1.95546,4.492273 6.764834,6.711984 10.887155,6.711984c9.301647,0 13.265417,-8.350342 13.265417,-27.746391c0,-11.045706 -1.426957,-18.286193 -4.333722,-21.985711c-2.06116,-2.695364 -5.390727,-4.333722 -9.301647,-4.333722c-5.020775,0.105701 -9.195947,3.276717 -10.940005,8.403193z" class="st0"/>
    <path stroke="null" id="svg_4" d="m347.191474,194.133948l0,14.745225l-36.255284,52.427466l37.682241,0l-5.126476,14.903776l-60.460707,0l0,-13.318268l38.580696,-53.695872l-35.356829,0l0,-15.062326l60.936359,0z" class="st0"/>
    <path stroke="null" id="svg_5" d="m383.552459,171.514033c0,7.399038 -5.86638,13.265417 -13.318268,13.265417c-7.187636,0 -13.106866,-5.91923 -13.106866,-13.265417c0,-7.346187 6.130631,-13.318268 13.476818,-13.318268c7.187636,0 12.948316,5.97208 12.948316,13.318268zm-2.536813,20.664455l0,84.031926l-21.510059,0l0,-80.649509l21.510059,-3.382417z" class="st0"/>
    <path stroke="null" id="svg_6" d="m420.124844,178.91307l0,63.948824c0,14.111022 0.158551,16.013631 1.479808,18.286193c0.792754,1.479808 2.536813,2.219711 4.333722,2.219711c0.792754,0 1.215556,0 2.378262,-0.317102l3.646668,12.789765c-3.646668,1.426957 -8.191792,2.219711 -12.842615,2.219711c-9.143096,0 -16.542134,-4.333722 -19.078947,-11.204257c-1.585508,-4.175171 -1.95546,-6.764834 -1.95546,-18.444744l0,-61.20061c0,-10.728604 -0.264251,-17.282038 -1.057005,-24.681075l21.985711,-4.967925c0.792754,4.492273 1.109856,9.7773 1.109856,21.351508z" class="st0"/>
    <path stroke="null" id="svg_7" d="m464.67762,178.91307l0,63.948824c0,14.111022 0.158551,16.013631 1.479808,18.286193c0.739904,1.479808 2.483963,2.219711 4.280872,2.219711c0.792754,0 1.321257,0 2.431112,-0.317102l3.646668,12.789765c-3.646668,1.426957 -8.138941,2.219711 -12.842615,2.219711c-9.143096,0 -16.542134,-4.333722 -19.078947,-11.204257c-1.638358,-4.175171 -1.90261,-6.764834 -1.90261,-18.444744l0,-61.20061c0,-10.728604 -0.317102,-17.282038 -1.162706,-24.681075l21.932861,-4.967925c0.951305,4.492273 1.215556,9.7773 1.215556,21.351508z" class="st0"/>
    <path stroke="null" id="svg_8" d="m498.396091,197.199263c7.98039,-3.382417 14.850925,-4.809374 22.408514,-4.809374c13.79392,0 23.254118,5.126476 26.477984,14.269572c1.057005,3.382417 1.532658,5.91923 1.479808,14.745225l-0.528503,27.58784c0,0.475652 0,1.004155 0,1.479808c0,8.825995 1.479808,12.208412 7.716139,16.806385l-11.415658,13.159717c-5.020775,-2.114011 -9.513048,-5.813529 -11.574209,-9.93585c-1.585508,1.638358 -3.382417,3.171016 -4.967925,4.333722c-3.96377,2.906765 -9.7773,4.492273 -16.542134,4.492273c-18.286193,0 -28.222043,-9.301647 -28.222043,-25.63238c0,-19.290348 13.318268,-28.274893 39.47915,-28.274893c1.585508,0 3.065316,0 4.809374,0.158551l0,-3.329567c0,-9.143096 -1.796909,-12.208412 -9.671599,-12.208412c-6.817685,0 -14.903776,3.329567 -23.67692,9.301647l-9.143096,-15.379428c4.386572,-2.801064 7.610439,-4.386572 13.371118,-6.764834zm27.852091,43.125819c-14.850925,0 -20.083102,2.695364 -20.083102,12.525514c0,6.394882 4.069471,10.728604 9.513048,10.728604c4.01662,0 8.033241,-2.114011 11.204257,-5.602128l0.369952,-17.651989l-1.004155,0z" class="st0"/>
   </g>
  </g>
 </svg>
