<?xml version="1.0" encoding="utf-8"?>
<!-- Generator: Adobe Illustrator 21.0.2, SVG Export Plug-In . SVG Version: 6.00 Build 0)  -->
<svg version="1.1" id="Layer_1" xmlns="http://www.w3.org/2000/svg" xmlns:xlink="http://www.w3.org/1999/xlink" x="0px" y="0px"
	 viewBox="0 0 576.9 81.5" style="enable-background:new 0 0 576.9 81.5;" xml:space="preserve">
<style type="text/css">
	.st0{fill:#344E66;}
</style>
<path class="st0" d="M0,65.5h11.8v-29c0-8,4.8-12.8,11.6-12.8c7,0,11,4.6,11,12.6v29.2h11.8V32.7c0-11.9-6.7-19.7-18.3-19.7
	c-8,0-12.7,4.2-16.1,9v-7.9H0V65.5z M82.1,66.7c9.4,0,16.1-3.8,21-9.6L96.2,51c-4.1,4-8.2,6.1-13.9,6.1c-7.6,0-13.5-4.7-14.8-13
	h37.8c0.1-1.2,0.2-2.2,0.2-3.3c0-14.8-8.3-27.6-24.6-27.6c-14.7,0-25.1,12.1-25.1,26.8v0.2C55.7,55.9,67.2,66.7,82.1,66.7
	 M67.4,36.2c1.1-8,6.1-13.5,13.3-13.5c7.8,0,12.3,5.9,13,13.5H67.4z M131.6,66.4c4.5,0,7.7-1,10.6-2.6v-9.6
	c-2.3,1.2-4.7,1.8-7.3,1.8c-4,0-6.3-1.8-6.3-6.4V24.4h13.8V14.3h-13.8V0h-11.8v14.1h-6.5v10.1h6.5v27.1
	C116.8,62.6,123,66.4,131.6,66.4 M174.2,66.7c10,0,16-4,21-9.6l-7.1-7c-3.7,3.8-7.8,6.3-13.3,6.3c-9,0-15.4-7.3-15.4-16.4v-0.2
	c0-9,6.3-16.3,14.9-16.3c5.8,0,9.6,2.6,13.2,6.4l7.4-7.9c-4.9-5.3-10.9-8.9-20.5-8.9c-15.5,0-26.8,12.3-26.8,26.9v0.2
	C147.6,54.7,158.9,66.7,174.2,66.7 M226.8,66.7c15.9,0,27.5-12.2,27.5-26.8v-0.2C254.3,25,242.7,13,227,13
	c-15.8,0-27.4,12.2-27.4,26.9v0.2C199.6,54.7,211.1,66.7,226.8,66.7 M227,56.3c-9.1,0-15.7-7.5-15.7-16.4v-0.2c0-9,6-16.3,15.5-16.3
	c9.2,0,15.8,7.5,15.8,16.5v0.2C242.6,48.9,236.5,56.3,227,56.3 M264.2,65.5H276v-29c0-7.9,4.5-12.8,11-12.8s10.4,4.5,10.4,12.5v29.3
	h11.8v-29c0-8.3,4.6-12.8,11-12.8c6.6,0,10.4,4.4,10.4,12.6v29.2h11.8V32.7c0-12.6-6.8-19.7-18-19.7c-7.8,0-13.2,3.6-17.3,9
	c-2.7-5.4-8-9-15.4-9c-7.9,0-12.4,4.3-15.7,8.9v-7.8h-11.8L264.2,65.5z M355.1,81.1h11.8V57.6c3.6,4.8,9,9,17.5,9
	c12.2,0,23.8-9.6,23.8-26.7v-0.2c0-17.1-11.8-26.7-23.8-26.7c-8.4,0-13.7,4.3-17.5,9.6V14h-11.8V81.1z M381.5,56.3
	c-8,0-15-6.6-15-16.4v-0.2c0-9.8,7-16.4,15-16.4s14.7,6.5,14.7,16.4v0.2C396.2,50,389.6,56.3,381.5,56.3 M432.9,66.6
	c7.9,0,13.2-3.3,16.7-7.5v6.4h11.5V35c0-6.7-1.8-12.2-5.5-15.9c-3.6-3.7-9.3-5.7-17-5.7c-8.2,0-13.7,1.7-19.4,4.2l3.1,9.2
	c4.7-1.9,9-3.2,14.7-3.2c8.3,0,12.7,3.9,12.7,11.2v1.3c-4-1.3-8.1-2.1-13.8-2.1c-12.6,0-21.2,5.5-21.2,16.5v0.2
	C414.7,61,423.2,66.6,432.9,66.6 M436.2,58c-5.6,0-10-2.8-10-7.8V50c0-5.4,4.5-8.6,12.1-8.6c4.7,0,8.7,0.9,11.7,2v3.5
	C449.9,53.5,444,58,436.2,58 M473.5,65.5h11.8v-29c0-8,4.8-12.8,11.6-12.8c7,0,11,4.6,11,12.6v29.2h11.8V32.7
	c0-11.9-6.7-19.7-18.3-19.7c-8,0-12.7,4.2-16.1,9v-7.9h-11.8V65.5z M551.4,52.3l-14.5-38.1h-12.7l21.4,51.5c-1.9,4.4-4,5.8-7.3,5.8
	c-2.4,0-4.8-0.8-6.9-1.9l-4,8.8c3.6,2,7.3,3.1,12.2,3.1c8.3,0,12.8-3.9,16.9-14.4l20.4-52.8h-12.3L551.4,52.3"/>
</svg>
