<svg xmlns="http://www.w3.org/2000/svg" xmlns:xlink="http://www.w3.org/1999/xlink" viewBox="0 0 750 150">
  <defs>
    <symbol overflow="visible" id="a">
      <path d="M13.688-19.172c0-2.875-1.532-4.953-3.61-6.297 2.078-1.264 3.61-3.327 3.61-6.296v-18.64c0-2.782 1.343-4.047 3.765-4.047h10.172V-58.5H17.547c-4.766 0-8.188 3.422-8.188 8.375v18.53c0 2.704-1.266 4.048-3.782 4.048h-3.78v4.14h3.78c2.516 0 3.78 1.454 3.78 4.063V-.812c0 4.953 3.423 8.374 8.19 8.374h10.077V3.516H17.453c-2.422 0-3.765-1.266-3.765-4.063zm0 0"/>
    </symbol>
    <symbol overflow="visible" id="c">
      <path d="M16.375-.547c0 2.797-1.344 4.063-3.78 4.063H2.436v4.046h10.08c4.764 0 8.186-3.42 8.186-8.375v-18.53c0-2.61 1.25-4.063 3.78-4.063h3.783v-4.14h-3.782c-2.53 0-3.78-1.345-3.78-4.048v-18.53c0-4.954-3.423-8.376-8.188-8.376H2.437v4.047h10.157c2.437 0 3.78 1.266 3.78 4.047v18.64c0 2.97 1.532 5.032 3.61 6.297-2.078 1.345-3.61 3.423-3.61 6.298zm0 0"/>
    </symbol>
    <symbol overflow="visible" id="d">
      <path d="M27.094-23.844c10.797 0 17.453-5.406 17.453-15.75 0-10.265-6.656-15.672-17.453-15.672H7.11V0h4.593v-23.844zm12.86-15.75c0 7.282-4.5 11.516-13.048 11.516H11.703v-23.047h15.203c8.547 0 13.047 4.328 13.047 11.53zm0 0"/>
    </symbol>
    <symbol overflow="visible" id="e">
      <path d="M25.203-40.234c-.906-.266-1.984-.532-3.515-.532-4.954 0-9 3.235-10.797 7.203v-6.39h-4.5V0h4.5v-27.906c1.89-5.125 5.766-8.64 10.626-8.64 1.437 0 2.61.28 3.687.733zm0 0"/>
    </symbol>
    <symbol overflow="visible" id="f">
      <path d="M38.875-19.984c0-12.328-7.11-20.782-17.72-20.782-10.53 0-17.64 8.453-17.64 20.782 0 12.328 7.11 20.797 17.64 20.797 10.61 0 17.72-8.47 17.72-20.797zm-4.5 0c0 10.078-5.22 16.828-13.22 16.828-7.92 0-13.14-6.75-13.14-16.828s5.22-16.828 13.14-16.828c8 0 13.22 6.75 13.22 16.828zm0 0"/>
    </symbol>
    <symbol overflow="visible" id="g">
      <path d="M33.03-2.61c0 9.72-4.405 14.844-12.327 14.844-6.125 0-10.53-2.687-11.89-8.28h-4.5c1.453 7.562 7.203 12.155 16.39 12.155 9.985 0 16.828-6.39 16.828-18.985v-37.078h-4.5v5.844c-2.25-3.42-6.843-6.656-12.327-6.656-11.61 0-17.187 9.625-17.187 20.25 0 10.703 5.578 20.25 17.187 20.25 5.485 0 10.078-3.156 12.328-6.578zm0-9.453c-2.608 4.954-7.014 7.75-11.874 7.75-8.28 0-13.14-6.67-13.14-16.203 0-9.453 4.86-16.11 13.14-16.11 4.86 0 9.266 2.782 11.875 7.735zm0 0"/>
    </symbol>
    <symbol overflow="visible" id="h">
      <path d="M33.563 0v-27c0-8.375-5.39-13.766-14.297-13.766-7.032 0-12.61 4.047-14.14 10.797h4.42c1.517-4.686 4.767-6.843 9.72-6.843 6.39 0 9.984 4.047 9.984 10v7.11c-1.797-1.985-6.203-4.235-10.89-4.235-8.282 0-14.938 4.86-14.938 12.235C3.422-4.047 10.078.625 18.187.625c4.938 0 9.36-2.328 11.063-4.406V0zM29.25-9.094c-1.266 3.422-5.766 5.938-10.625 5.938-5.672 0-10.97-2.875-10.97-8.547 0-5.672 5.298-8.453 10.97-8.453 4.86 0 9.36 2.515 10.625 5.937zm0 0"/>
    </symbol>
    <symbol overflow="visible" id="i">
      <path d="M33.563-33.125c-1.61-4.5-5.39-7.64-11.157-7.64-5.39 0-9.53 3.14-11.515 6.92v-6.108h-4.5V0h4.5v-28.266c1.626-4.765 5.672-8.36 10.626-8.36 5.843 0 8.547 4.142 8.547 10.25V0h4.5v-28.266c1.624-4.765 5.67-8.36 10.624-8.36 5.844 0 8.547 4.142 8.547 10.25V0h4.407v-27c0-8.016-4.046-13.766-12.156-13.766-5.672 0-10.172 3.688-12.422 7.64zm0 0"/>
    </symbol>
    <symbol overflow="visible" id="j">
      <path d="M27.188.813c11.875 0 21.234-7.375 21.234-22.594v-33.486h-4.594v32.86c0 12.953-7.11 18.984-16.64 18.984-9.547 0-16.563-6.03-16.563-18.984v-32.86H6.03v33.485C6.03-6.563 15.298.812 27.188.812zm0 0"/>
    </symbol>
    <symbol overflow="visible" id="k">
      <path d="M8.188-9.266c0 6.829 3.874 10.079 9.718 10.079 2.157 0 4.407-.547 5.938-1.36v-4.22c-1.532.892-3.5 1.533-5.485 1.533-3.782 0-5.766-1.985-5.766-6.485v-26.374h10.36v-3.86h-10.36v-10.265H8.188v10.267h-6.75v3.86h6.75zm0 0"/>
    </symbol>
    <symbol overflow="visible" id="l">
      <path d="M21.422 0l15.844-39.953h-4.594l-13.14 33.75-13.14-33.75H1.624L17.547 0zm0 0"/>
    </symbol>
    <symbol overflow="visible" id="m">
      <path d="M10.89-39.953h-4.5V0h4.5zm.813-12.156c0-1.624-1.36-3.062-3.062-3.062-1.703 0-3.062 1.438-3.062 3.063 0 1.704 1.36 3.063 3.063 3.063 1.704 0 3.063-1.36 3.063-3.062zm0 0"/>
    </symbol>
    <symbol overflow="visible" id="n">
      <path d="M33.125 0h5.484L18.983-22.766l19-17.187h-5.937L10.89-20.703V-58.5h-4.5V0h4.5v-15.484l4.86-4.5zm0 0"/>
    </symbol>
    <symbol overflow="visible" id="o">
      <path d="M10.89-58.5h-4.5V0h4.5zm0 0"/>
    </symbol>
    <symbol overflow="visible" id="p">
      <path d="M6.39 0h4.5v-27.984c1.985-4.782 6.485-8.64 11.97-8.64 7.11 0 10.265 4.577 10.265 10.796V0h4.406v-26.453c0-8.47-4.764-14.313-13.858-14.313-5.672 0-10.36 3.422-12.78 7.203v-6.39h-4.5zm0 0"/>
    </symbol>
  </defs>
  <use xlink:href="#a" x="29.312" y="99"/>
  <use xlink:href="#b" x="59.372" y="99"/>
  <use xlink:href="#c" x="79.262" y="99"/>
  <use xlink:href="#b" x="109.322" y="99"/>
  <use xlink:href="#d" x="129.212" y="99"/>
  <use xlink:href="#e" x="176.822" y="99"/>
  <use xlink:href="#f" x="203.912" y="99"/>
  <use xlink:href="#g" x="246.302" y="99"/>
  <use xlink:href="#e" x="290.222" y="99"/>
  <use xlink:href="#h" x="317.312" y="99"/>
  <use xlink:href="#i" x="356.822" y="99"/>
  <use xlink:href="#j" x="420.992" y="99"/>
  <use xlink:href="#k" x="475.442" y="99"/>
  <use xlink:href="#l" x="502.172" y="99"/>
  <use xlink:href="#m" x="541.052" y="99"/>
  <use xlink:href="#n" x="558.332" y="99"/>
  <use xlink:href="#o" x="598.472" y="99"/>
  <use xlink:href="#m" x="615.752" y="99"/>
  <use xlink:href="#p" x="633.032" y="99"/>
  <use xlink:href="#g" x="676.502" y="99"/>
</svg>
