<svg viewBox="0 0 640 480" xmlns="http://www.w3.org/2000/svg">
 <style type="text/css">.st0{fill:#FFFFFF;}
	.st1{fill:#CC0000;}</style>
 <g>
  <title>Layer 1</title>
  <g stroke="null" id="svg_1">
   <g stroke="null" id="svg_2">
    <path stroke="null" d="m228.034999,279.965024l0.908296,0l0.908296,1.816592l0.908296,0l-1.362445,-1.816592c0.454149,0 0.908296,-0.454149 0.908296,-1.362445c0,-0.908296 -0.454149,-1.362445 -1.362445,-1.362445l-1.816592,0l0,4.087333l0.454149,0l0,-1.362445l0.454149,0l0,0.000001zm0,-0.454149l0,-1.362445l0.908296,0c0.454149,0 0.908296,0 0.908296,0.454149c0,0.454149 -0.454149,0.908296 -0.908296,0.908296l-0.908296,0l0,0z" id="svg_3"/>
    <path stroke="null" d="m233.030627,279.965024c0,2.270741 -1.816592,4.087333 -4.087333,4.087333c-2.270741,0 -4.087333,-1.816592 -4.087333,-4.087333c0,-2.270741 1.816592,-4.087333 4.087333,-4.087333c2.270741,0 4.087333,1.816592 4.087333,4.087333zm-4.087333,-3.633185c-1.816592,0 -3.179037,1.362445 -3.179037,3.633185c0,1.816592 1.362445,3.179037 3.179037,3.179037c1.816592,0 3.179037,-1.362445 3.179037,-3.179037c0,-2.270741 -1.362445,-3.633185 -3.179037,-3.633185z" id="svg_4"/>
    <path stroke="null" class="st0" d="m205.781742,283.144061c-5.903925,0 -10.899554,0.908296 -14.986887,2.724888c-0.454149,0 -0.908296,0.454149 -0.908296,1.362445c0,0 0,0.454149 0,0.454149c0.454149,1.362445 -0.454149,2.724888 -4.087333,3.633185c-5.449777,1.362445 -9.082962,6.812222 -10.899554,9.082962c-2.270741,2.270741 -9.082962,3.633185 -8.174665,2.270741c0.908296,-0.908296 3.633185,-4.087333 5.449777,-7.720518c1.816592,-3.179037 3.179037,-4.087333 4.995629,-7.266369c0.454149,-0.908296 2.724888,-4.087333 3.633185,-6.358073c0.908296,-2.270741 0.454149,-5.449777 0.908296,-6.812222c0.454149,-1.816592 2.270741,-5.449777 2.270741,-7.720518c0,-1.362445 -4.995629,1.816592 -7.720518,1.816592s-4.995629,-1.362445 -7.266369,-1.816592c-2.724888,0 -4.541481,2.270741 -6.812222,1.816592c-1.362445,0 -2.724888,-1.362445 -4.995629,-1.362445c-3.633185,0 -7.720518,1.816592 -15.895183,1.816592c-8.174665,-0.454149 -15.441035,-9.991258 -16.349331,-11.80785c-1.362445,-1.816592 -2.724888,-1.816592 -4.087333,-0.454149c-1.362445,1.362445 -3.633185,0.454149 -4.087333,-0.454149c-0.908296,-1.816592 -3.633185,-7.266369 -8.174665,-8.174665c-5.903925,-1.362445 -9.082962,3.179037 -8.628814,7.266369c0.454149,4.087333 2.724888,4.995629 4.087333,7.266369c1.362445,2.270741 1.816592,3.633185 4.087333,4.541481c1.362445,0.454149 2.270741,1.816592 1.816592,2.724888c-0.454149,0.908296 -1.816592,1.362445 -3.179037,1.362445c-2.270741,0 -4.087333,-0.454149 -4.995629,-1.362445c-1.362445,-0.908296 -2.270741,-2.270741 -3.633185,-4.087333c-1.362445,-2.270741 -3.633185,-3.179037 -5.903925,-3.179037c-1.362445,0 -2.270741,0.454149 -3.179037,0.908296c-4.087333,2.270741 -8.628814,3.179037 -13.624442,3.179037l-5.903925,0c10.899554,31.790366 41.781624,54.951919 77.659323,54.951919c28.611329,0 54.043623,-14.986887 68.576361,-37.240143c-3.179037,-0.908296 -6.358073,-1.362445 -9.991258,-1.362445l0.000002,0.000002z" id="svg_5"/>
    <path stroke="null" d="m164.908414,276.785987c0,0 0,0 0,0c-1.362445,1.362445 -1.816592,1.816592 -2.270741,2.270741c-1.816592,1.362445 -4.087333,0 -5.449777,-0.908296c-3.179037,-1.816592 -5.449777,-0.454149 -5.903925,0.908296c-0.454149,1.362445 0,3.179037 1.816592,2.724888c2.270741,-0.454149 2.270741,0 4.087333,0.908296c3.179037,1.816592 5.449777,0.908296 6.358073,0c0.908296,-0.908296 1.362445,-1.362445 1.816592,-2.270741c0.908296,-1.816592 0.454149,-3.179037 -0.454149,-3.633185c0.454149,0 0,0 0,0l0.000001,0z" id="svg_6"/>
    <path stroke="null" d="m147.196639,158.253336c-44.960661,0 -81.746656,36.785995 -81.746656,81.746656c0,9.082962 1.362445,17.711776 4.087333,26.340589l5.903925,0c4.995629,0 9.53711,-1.362445 13.624442,-3.179037c0.908296,-0.454149 2.270741,-0.908296 3.179037,-0.908296c2.724888,0 4.541481,0.908296 5.903925,3.179037c1.362445,1.816592 2.270741,3.179037 3.633185,4.087333c1.362445,0.908296 2.724888,1.362445 4.995629,1.362445c0.908296,0 2.724888,-0.454149 3.179037,-1.362445c0.454149,-1.362445 0,-2.270741 -1.816592,-2.724888c-2.270741,-0.908296 -2.724888,-2.270741 -4.087333,-4.541481c-1.362445,-2.270741 -3.633185,-3.179037 -4.087333,-7.266369c-0.454149,-4.087333 2.724888,-8.628814 8.628814,-7.266369c4.541481,0.908296 7.266369,6.358073 8.174665,8.174665c0.454149,0.908296 2.270741,2.270741 4.087333,0.454149c1.362445,-1.362445 3.179037,-1.362445 4.087333,0.454149c0.908296,1.362445 8.174665,11.353702 16.349331,11.80785c8.174665,0.454149 12.261999,-1.816592 15.895183,-1.816592c2.270741,0 3.633185,1.362445 4.995629,1.362445c2.270741,0.454149 4.087333,-1.816592 6.812222,-1.816592c2.270741,0 4.541481,1.362445 7.266369,1.362445s7.720518,-3.179037 7.720518,-1.816592c0,2.270741 -1.816592,5.903925 -2.270741,7.720518c-0.454149,1.362445 0,4.087333 -0.908296,6.812222c-0.454149,2.270741 -2.724888,5.449777 -3.633185,6.358073c-1.816592,3.179037 -3.633185,4.087333 -4.995629,7.266369c-1.816592,3.633185 -4.995629,6.812222 -5.449777,7.720518c-0.908296,1.362445 5.449777,0 8.174665,-2.270741c1.816592,-1.816592 5.449777,-7.720518 10.899554,-9.082962c3.633185,-0.908296 4.541481,-2.270741 4.087333,-3.633185c0,0 0,-0.454149 0,-0.454149c0,-0.454149 0.454149,-0.908296 0.908296,-1.362445c4.087333,-1.816592 9.082962,-2.724888 14.986887,-2.724888c3.179037,0 6.812222,0.454149 9.991258,1.362445c8.174665,-11.80785 13.170295,-27.248886 13.170295,-43.598216c0,-44.960661 -36.785995,-81.746656 -81.746656,-81.746656l-0.000002,-0.000003z" id="svg_7"/>
    <path stroke="null" class="st1" d="m193.519744,218.200884c-0.908296,2.724888 -1.816592,6.358073 -7.266369,8.628814c-0.908296,0.454149 -0.908296,-0.454149 -0.908296,-0.908296c1.816592,-3.179037 2.270741,-4.087333 2.724888,-5.449777c0.908296,-1.816592 1.362445,-4.541481 -0.454149,-9.991258c-3.179037,-10.899554 -9.53711,-25.886441 -14.078591,-30.427922c-4.541481,-4.541481 -12.716146,-5.903925 -19.982516,-4.087333c-2.724888,0.908296 -8.174665,3.633185 -17.711776,1.362445c-17.257627,-3.633185 -19.528368,4.541481 -20.436664,8.628814c-0.908296,3.633185 -3.179037,14.078591 -3.179037,14.078591c-0.908296,4.087333 -1.816592,11.80785 24.523997,16.803479c12.261999,2.270741 13.170295,5.449777 13.624442,7.720518c0.908296,4.087333 2.724888,6.358073 4.087333,7.720518c1.816592,1.362445 0,2.270741 -1.816592,2.270741c-5.449777,0.454149 -24.523997,-4.995629 -36.331847,-11.353702c-9.53711,-5.903925 -9.53711,-10.899554 -7.266369,-15.441035c-14.078591,-1.362445 -24.978145,1.362445 -26.794737,8.174665c-3.179037,11.353702 25.432293,31.336218 58.130955,40.873328c34.061106,10.445406 69.484657,3.179037 73.571991,-18.165923c1.362445,-9.991258 -6.812222,-17.257627 -20.436664,-20.436664l0.000001,-0.000003zm-52.681178,-20.890813c-9.53711,0.908296 -10.445406,1.816592 -12.261999,3.633185c-2.270741,2.724888 -5.903925,-3.633185 -5.903925,-3.633185c-1.816592,-0.454149 -4.541481,-3.633185 -3.179037,-6.358073c1.362445,-2.724888 3.633185,-2.270741 4.541481,-1.362445c0.908296,0.908296 2.724888,2.724888 5.449777,2.724888c2.270741,0 5.449777,-0.454149 9.53711,-0.454149c4.087333,0 6.812222,1.362445 6.812222,2.724888c0,1.362445 -0.454149,2.270741 -4.995629,2.724888l0.000001,0.000001zm20.436664,-9.53711c-1.816592,0 -3.179037,-0.454149 -4.541481,-0.908296c0,0 -0.454149,0 -0.454149,-0.454149s0,-0.454149 0.454149,-0.454149c3.179037,-0.908296 5.449777,-1.816592 5.449777,-3.179037c0,-1.362445 -4.541481,-2.270741 -9.53711,-1.816592c-0.454149,0 -0.908296,0 -1.816592,0c0,0 0,0 0,0c0,0 -0.454149,0 -0.454149,-0.454149c0,0 0,0 0,0c1.816592,-0.908296 4.541481,-1.816592 7.720518,-2.270741c0.908296,0 1.816592,0 2.724888,0c0,0 0.454149,0 0.454149,0c5.449777,0 9.53711,2.270741 9.53711,4.541481c0,3.179037 -4.087333,4.995629 -9.53711,4.995629l0,0.000002z" id="svg_8"/>
   </g>
   <g stroke="null" id="svg_9">
    <path stroke="null" d="m270.724919,244.995621c0,-7.720518 0,-13.170295 -0.454149,-18.165923l12.261999,0l0.454149,10.445406l0.454149,0c2.724888,-7.720518 9.082962,-11.80785 15.441035,-11.80785c1.362445,0 2.270741,0 3.179037,0.454149l0,13.170295c-1.362445,-0.454149 -2.724888,-0.454149 -4.087333,-0.454149c-6.812222,0 -11.353702,4.087333 -12.716146,10.899554c-0.454149,1.362445 -0.454149,2.724888 -0.454149,4.087333l0,29.065478l-14.078591,0l0,-37.694291l0,-0.000002z" id="svg_10"/>
    <path stroke="null" d="m319.318764,259.074212c0.454149,9.991258 8.174665,14.532739 17.257627,14.532739c6.358073,0 11.353702,-0.908296 15.441035,-2.724888l2.270741,9.53711c-4.995629,1.816592 -11.353702,3.633185 -19.528368,3.633185c-18.165923,0 -28.611329,-11.353702 -28.611329,-28.611329c0,-15.441035 9.53711,-29.973774 27.248886,-29.973774c18.165923,0 24.069849,14.986887 24.069849,27.248886c0,2.724888 -0.454149,4.541481 -0.454149,5.903925l-37.694291,0.454149l0,-0.000001zm24.523997,-9.991258c0,-4.995629 -2.270741,-13.624442 -11.80785,-13.624442c-8.628814,0 -12.261999,7.720518 -13.170295,13.624442l24.978145,0z" id="svg_11"/>
    <path stroke="null" d="m524.593701,269.973766c0,4.541481 0,9.082962 0.908296,13.170295l-4.995629,0l-0.908296,-8.174665l0,0c-2.724888,4.541481 -9.082962,9.082962 -17.711776,9.082962c-11.353702,0 -16.349331,-7.720518 -16.349331,-15.441035c0,-12.716146 11.353702,-20.890813 34.061106,-20.436664l0,-1.362445c0,-5.449777 -0.908296,-16.803479 -14.532739,-16.349331c-4.995629,0 -9.991258,1.362445 -14.078591,4.087333l-1.816592,-4.087333c4.995629,-3.633185 11.353702,-4.995629 16.349331,-4.995629c16.349331,0 19.074219,12.261999 19.074219,22.253256l0,22.253256l0.000001,0zm-5.449777,-16.803479c-12.261999,-0.454149 -28.157182,1.362445 -28.157182,14.986887c0,8.174665 5.449777,11.80785 11.353702,11.80785c9.53711,0 14.532739,-5.903925 16.803479,-11.353702c0.454149,-1.362445 0.454149,-2.270741 0.454149,-3.179037l-0.454149,-12.261999l0,0l0,0.000001z" id="svg_12"/>
    <path stroke="null" d="m546.846957,214.567698l0,12.261999l15.895183,0l0,4.541481l-15.895183,0l0,36.331847c0,7.266369 2.270741,11.80785 8.174665,11.80785c2.724888,0 4.995629,-0.454149 6.358073,-0.908296l0.454149,4.087333c-1.816592,0.908296 -4.541481,1.362445 -7.720518,1.362445c-4.087333,0 -7.266369,-1.362445 -9.53711,-4.087333c-2.724888,-2.724888 -3.633185,-7.720518 -3.633185,-13.170295l0,-35.423551l-9.53711,0l0,-4.541481l9.53711,0l0,-10.445406l5.903925,-1.816592z" id="svg_13"/>
    <path stroke="null" d="m570.00851,279.965024l0.908296,0l0.908296,1.816592l0.908296,0l-1.362445,-1.816592c0.454149,0 0.908296,-0.454149 0.908296,-1.362445c0,-0.908296 -0.454149,-1.362445 -1.362445,-1.362445l-1.816592,0l0,4.087333l0.454149,0l0.454149,-1.362445l0,0l0,0.000001zm0,-0.454149l0,-1.362445l0.908296,0c0.454149,0 0.908296,0 0.908296,0.454149c0,0.454149 -0.454149,0.908296 -0.908296,0.908296l-0.908296,0z" id="svg_14"/>
    <path stroke="null" d="m574.54999,279.965024c0,2.270741 -1.816592,4.087333 -4.087333,4.087333c-2.270741,0 -4.087333,-1.816592 -4.087333,-4.087333c0,-2.270741 1.816592,-4.087333 4.087333,-4.087333c2.270741,0 4.087333,1.816592 4.087333,4.087333zm-4.087333,-3.633185c-1.816592,0 -3.179037,1.362445 -3.179037,3.179037c0,1.816592 1.362445,3.179037 3.179037,3.179037c1.816592,0 3.179037,-1.362445 3.179037,-3.179037c0.454149,-1.362445 -1.362445,-3.179037 -3.179037,-3.179037z" id="svg_15"/>
    <path stroke="null" d="m403.790309,233.18777l0,0c-2.724888,-4.087333 -8.174665,-7.266369 -15.895183,-7.266369c-13.624442,0 -24.978145,11.353702 -24.978145,29.973774c0,17.257627 10.445406,28.611329 24.069849,28.611329c8.174665,0 14.986887,-3.633185 18.165923,-9.991258l0.454149,0l0.454149,9.082962l12.716146,0c-0.454149,-3.633185 -0.454149,-9.991258 -0.454149,-15.895183l0,-62.218288l-14.078591,-4.087333l-0.454149,31.790366l0,0l0.000001,0zm0,25.886441c0,1.362445 0,2.724888 -0.454149,4.087333c-1.362445,5.903925 -6.358073,9.991258 -12.261999,9.991258c-9.082962,0 -14.078591,-7.720518 -14.078591,-17.711776c0,-10.445406 4.995629,-18.620072 14.078591,-18.620072c6.358073,0 10.899554,4.541481 12.261999,9.991258c0.454149,1.362445 0.454149,2.724888 0.454149,3.633185l0,8.628814z" id="svg_16"/>
    <path stroke="null" d="m455.563191,225.921401c-4.087333,0 -8.174665,1.362445 -11.353702,3.179037c-3.179037,1.816592 -5.903925,4.995629 -7.720518,8.174665l0,0l0,-26.340589l-5.449777,-1.816592l0,74.026138l5.449777,0l0,-34.061106c0,-2.270741 0,-3.633185 0.908296,-5.449777c2.270741,-6.812222 9.082962,-12.716146 16.803479,-12.716146c11.353702,0 15.441035,9.082962 15.441035,19.074219l0,33.15281l5.449777,0l0,-33.606959c0,-20.890813 -14.078591,-23.615701 -19.528368,-23.615701l0.000001,0.000001z" id="svg_17"/>
   </g>
  </g>
 </g>
</svg>
