<svg viewBox="0 0 640 480" xmlns="http://www.w3.org/2000/svg">
  <style type="text/css">.st0{fill:none;}
 	.st1{fill:#1428a0;}
 	.st2{clip-path:url(#SVGID_2_);fill:#1428a0;}</style>

  <g>
   <title>background</title>
   <rect x="-1" y="-1" width="642" height="482" id="canvas_background" fill="none"/>
  </g>
  <g>
   <title>Layer 1</title>
   <g stroke="null" id="svg_5">
    <polygon stroke="null" class="st1" points="490.2737731933594,260.90970611572266 489.2538146972656,202.6430435180664 507.6135559082031,202.6430435180664 507.6135559082031,276.20951080322266 481.22137451171875,276.20951080322266 462.86163330078125,215.9028549194336 462.4791259765625,215.9028549194336 463.4991760253906,276.20951080322266 445.2668762207031,276.20951080322266 445.2668762207031,202.6430435180664 472.8065185546875,202.6430435180664 489.8912048339844,260.90970611572266 " id="svg_2"/>
    <polygon stroke="null" class="st1" points="156.22857666015625,209.52794647216797 146.15623474121094,276.9744644165039 126.01150512695312,276.9744644165039 139.78134155273438,202.6430435180664 172.80335998535156,202.6430435180664 186.44566345214844,276.9744644165039 166.5559539794922,276.9744644165039 156.61106872558594,209.52794647216797 " id="svg_3"/>
    <polygon stroke="null" class="st1" points="242.79983520507812,259.5072250366211 251.97967529296875,202.6430435180664 282.19677734375,202.6430435180664 283.8542175292969,276.9744644165039 265.3670349121094,276.9744644165039 264.8570251464844,210.16541290283203 264.47454833984375,210.16541290283203 251.97967529296875,276.9744644165039 233.23748779296875,276.9744644165039 220.74266052246094,210.16541290283203 220.3601531982422,210.16541290283203 219.85015869140625,276.9744644165039 201.36293029785156,276.9744644165039 203.0204315185547,202.6430435180664 233.23748779296875,202.6430435180664 242.4173583984375,259.5072250366211 " id="svg_4"/>
    <path stroke="null" class="st2" d="m94.774477,255.937268c0.764989,1.784974 0.509993,4.079941 0.127498,5.482421c-0.637491,2.422465 -2.294967,4.972428 -7.267395,4.972428c-4.589934,0 -7.522391,-2.677461 -7.522391,-6.757402l0,-7.139897l-19.762215,0l0,5.737417c0,16.574761 13.004812,21.547189 27.02961,21.547189c13.387307,0 24.479647,-4.589934 26.264621,-16.957255c0.892487,-6.374908 0.254996,-10.582347 -0.127498,-12.239823c-3.187454,-15.427277 -31.364547,-20.017211 -33.404518,-28.814584c-0.382494,-1.529978 -0.254996,-3.059956 -0.127498,-3.952443c0.509993,-2.422465 2.167469,-4.972428 6.757402,-4.972428c4.334937,0 6.884901,2.677461 6.884901,6.757402l0,4.589934l18.487233,0l0,-5.227425c0,-16.192266 -14.53479,-18.742229 -24.989639,-18.742229c-13.259809,0 -23.969654,4.334937 -26.009625,16.447263c-0.509993,3.314952 -0.637491,6.24741 0.127498,9.944856c3.314952,15.427277 29.707071,19.762215 33.532016,29.324577" id="svg_7"/>
    <path stroke="null" class="st2" d="m336.128493,255.80977c0.764989,1.784974 0.509993,4.079941 0.127498,5.482421c-0.637491,2.422465 -2.294967,4.972428 -7.139897,4.972428c-4.589934,0 -7.394893,-2.677461 -7.394893,-6.629904l0,-7.139897l-19.634717,0l0,5.609919c0,16.447263 12.877314,21.292193 26.774614,21.292193c13.259809,0 24.22465,-4.589934 26.009625,-16.829757c0.892487,-6.374908 0.254996,-10.454849 -0.127498,-11.984827c-3.059956,-15.427277 -30.982053,-20.017211 -33.022023,-28.559588c-0.382494,-1.529978 -0.254996,-3.059956 -0.127498,-3.824945c0.509993,-2.422465 2.167469,-4.972428 6.757402,-4.972428c4.334937,0 6.884901,2.677461 6.884901,6.629904l0,4.589934l18.359735,0l0,-5.227425c0,-16.064768 -14.407292,-18.487233 -24.734643,-18.487233c-13.004812,0 -23.714658,4.334937 -25.62713,16.319764c-0.509993,3.314952 -0.637491,6.24741 0.127498,9.944856c2.932458,15.044783 29.06958,19.37972 32.767027,28.814584" id="svg_8"/>
    <path stroke="null" class="st2" d="m398.475093,265.882124c5.227425,0 6.757402,-3.569948 7.139897,-5.354923c0.127498,-0.764989 0.254996,-1.912472 0.127498,-2.80496l0,-55.079205l18.742229,0l0,53.294231c0,1.40248 -0.127498,4.207439 -0.127498,4.84493c-1.274982,13.897299 -12.239823,18.359735 -25.882126,18.359735c-13.642303,0 -24.607145,-4.462436 -25.882126,-18.359735c-0.127498,-0.764989 -0.254996,-3.569948 -0.127498,-4.84493l0,-53.294231l18.742229,0l0,54.951707c0,0.892487 0,2.039971 0.127498,2.80496c0.382494,1.912472 2.039971,5.482421 7.139897,5.482421" id="svg_9"/>
    <path stroke="null" class="st2" d="m553.385357,264.989637c5.354923,0 7.267395,-3.44245 7.522391,-5.354923c0.127498,-0.892487 0.254996,-1.912472 0.127498,-2.80496l0,-10.709845l-7.64989,0l0,-10.837344l26.264621,0l0,19.889713c0,1.40248 0,2.422465 -0.254996,4.84493c-1.274982,13.514805 -13.004812,18.359735 -26.137123,18.359735c-13.13231,0 -24.862141,-4.84493 -26.137123,-18.359735c-0.254996,-2.422465 -0.254996,-3.44245 -0.254996,-4.84493l0,-31.237049c0,-1.274982 0.127498,-3.697447 0.254996,-4.84493c1.657476,-13.897299 12.877314,-18.359735 26.009625,-18.359735c13.13231,0 24.734643,4.462436 26.009625,18.359735c0.254996,2.422465 0.127498,4.84493 0.127498,4.84493l0,2.422465l-18.359735,0l0,-4.207439c0,0 0,-1.784974 -0.254996,-2.80496c-0.382494,-1.657476 -1.784974,-5.354923 -7.394893,-5.354923c-5.354923,0 -7.012399,3.569948 -7.394893,5.354923c-0.254996,1.019985 -0.254996,2.294967 -0.254996,3.569948l0,33.91451c0,0.892487 0,2.039971 0.127498,2.80496c0.382494,2.039971 2.167469,5.354923 7.64989,5.354923" id="svg_10"/>
   </g>
  </g>
 </svg>
