<svg viewBox="0 0 640 480" xmlns="http://www.w3.org/2000/svg">
 <metadata id="metadata8">image/svg+xml</metadata>
 <g>
  <title>Layer 1</title>
  <g id="g10" transform="matrix(1.7398678747866292,0,0,-1.7398678747866292,-11.26641359217976,160.8763337742019) ">
   <g id="g12" transform="translate(31.200000762939453,-123.19999694824219) scale(0.10000000149011612) ">
    <path fill="#231f20" fill-rule="nonzero" d="m485.804369,135.331379c-26.844,0 -52.3167,4.121092 -76.3987,12.441412c-24.0899,8.3594 -45.4102,20.8984 -64.0313,37.4687l46.1992,55.3712c30.0196,-23.9297 62.4218,-35.9415 97.2968,-35.9415c11.074,0 19.57,1.6993 25.399,5.2891c5.89,3.6211 8.769,8.6719 8.769,15.2031l0,0.8399c0,3.1172 -0.723,5.9297 -2.117,8.3593c-1.406,2.3591 -4.133,4.6991 -7.891,7.0701c-3.894,2.219 -9.015,4.41 -15.437,6.52c-6.489,2.187 -14.731,4.379 -25.102,6.679c-15.965,3.711 -30.7381,7.77 -44.4139,12.192c-13.789,4.406 -25.6836,10.058 -35.8086,17.066c-10.1289,7.012 -18.125,15.742 -24.0351,26.09c-5.7813,10.371 -8.711,23.281 -8.711,38.711l0,0.82c0,13.969 2.7071,26.801 7.9414,38.481c5.2461,11.66 13.0157,21.781 23.0469,30.328c10.1758,8.539 22.375,15.199 36.6406,19.848c14.3086,4.707 30.3907,7.07 48.4177,7.07c25.672,0 48.516,-3.359 68.672,-10.137c20.156,-6.719 38.289,-16.719 54.602,-29.918l-41.516,-58.851c-13.683,9.73 -27.812,17.09 -42.187,22.031c-14.375,5.019 -28.379,7.48 -41.758,7.48c-9.953,0 -17.5,-1.82 -22.442,-5.531c-5,-3.711 -7.4801,-8.18 -7.4801,-13.672l0,-0.84c0,-3.449 0.7539,-6.398 2.3441,-9c1.609,-2.578 4.187,-4.878 8.086,-7.007c3.875,-2.11 9.187,-4.301 15.91,-6.411c6.707,-2.07 15.191,-4.359 25.426,-6.66c17.089,-3.648 32.648,-8.011 46.425,-13.031c13.907,-5 25.688,-11.008 35.344,-18.141c9.727,-7.128 17.149,-15.718 22.266,-25.859c5.183,-10.117 7.773,-22.148 7.773,-36.0898l0,-0.8789c0,-15.3398 -2.941,-29.0703 -8.84,-41.0195c-5.886,-11.8906 -14.011,-22.1524 -24.629,-30.5117c-10.476,-8.4688 -23.25,-14.8399 -38.035,-19.25785c-14.855,-4.41016 -31.465,-6.601562 -49.726,-6.601562" id="path14"/>
    <path fill="#231f20" fill-rule="nonzero" d="m650.093369,440.120691l82.996,0l0,-112.168l106.621,0l0,112.168l83.055,0l0,-299.64869l-83.055,0l0,113.85169l-106.621,0l0,-113.85169l-82.996,0l0,299.64869" id="path16"/>
    <path fill="#231f20" fill-rule="nonzero" d="m1132.288369,209.323591c11.434,0 21.863,2.1289 31.348,6.4179c9.472,4.2383 17.492,10.0821 24.09,17.3321c6.535,7.2771 11.718,15.8401 15.421,25.5081c3.719,9.699 5.606,19.898 5.606,30.8l0,0.879c0,10.84 -1.887,21.153 -5.606,30.801c-3.703,9.719 -9.011,18.32 -15.898,25.68c-6.824,7.422 -14.961,13.359 -24.504,17.789c-9.433,4.48 -19.781,6.66 -31.277,6.66c-11.496,0 -21.848,-2.18 -31.164,-6.418c-9.305,-4.242 -17.301,-10.082 -24.032,-17.312c-6.718,-7.297 -11.894,-15.86 -15.437,-25.45c-3.527,-9.781 -5.41,-19.98 -5.41,-30.859l0,-0.891c0,-10.839 1.883,-21.097 5.652,-30.808c3.652,-9.723 8.895,-18.262 15.598,-25.6799c6.773,-7.4219 14.851,-13.3828 24.273,-17.793c9.492,-4.4375 19.914,-6.6562 31.34,-6.6562zm-0.644,-74.9219c-23.094,0 -44.524,4.05859 -64.211,12.3008c-19.668,8.0898 -36.637,19.0781 -50.899,33.1094c-14.297,13.9609 -25.496,30.4609 -33.691,49.2304c-8.067,18.8714 -12.137,38.8904 -12.137,60.3394l0,0.879c0,21.36 4.07,41.582 12.137,60.602c8.195,18.988 19.496,35.527 34.043,49.668c14.621,14.121 31.703,25.273 51.371,33.34c19.734,8.125 41.129,12.246 64.324,12.246c23.094,0 44.426,-4.121 64.16,-12.246c19.719,-8.067 36.688,-19.141 50.946,-33.168c14.25,-13.961 25.449,-30.391 33.585,-49.231c8.125,-18.789 12.247,-38.89 12.247,-60.32l0,-0.891c0,-21.39 -4.122,-41.589 -12.247,-60.609c-8.136,-18.9687 -19.453,-35.5312 -34.062,-49.6719c-14.492,-14.0781 -31.68,-25.1875 -51.367,-33.2773c-19.66,-8.24221 -41.043,-12.3008 -64.199,-12.3008" id="path18"/>
    <path fill="#231f20" fill-rule="nonzero" d="m1479.424369,296.272691c14.25,0 25.28,3.18 32.97,9.59c7.73,6.488 11.55,15.098 11.55,25.918l0,0.902c0,11.949 -4,20.84 -11.95,26.739c-8.02,5.89 -19.03,8.71 -32.99,8.71l-54.37,0l0,-71.859l54.79,0zm-137.839,143.848l141.719,0c23.08,0 42.65,-2.832 58.66,-8.555c15.92,-5.723 28.93,-13.734 38.89,-23.902c17.72,-17.211 26.63,-40.473 26.63,-69.871l0,-0.93c0,-23.09 -5.65,-42.133 -16.73,-57.27c-11.14,-15.14 -26.16,-26.742 -44.94,-34.691l71.45,-104.42969l-95.9,0l-60.34,90.69919l-36.39,0l0,-90.69919l-83.049,0l0,299.64869" id="path20"/>
    <path fill="#231f20" fill-rule="nonzero" d="m1731.664369,367.311691l-89.88,0l0,72.809l262.87,0l0,-72.809l-89.94,0l0,-226.83969l-83.05,0l0,226.83969" id="path22"/>
    <path fill="#231f20" fill-rule="nonzero" d="m2086.014369,134.401691c-21.42,0 -41.52,3.94141 -60.31,11.5586c-18.85,7.75 -35.21,18.5312 -49.06,32.3203c-13.85,13.9102 -24.79,30.2813 -32.93,49.2422c-8.13,19.0199 -12.27,39.6489 -12.27,61.8589l0,0.879c0,21.731 4.03,42.071 12.04,61.012c8,18.91 18.96,35.469 32.93,49.609c14.02,14.2 30.68,25.274 49.9,33.223c19.24,7.949 40.27,12.012 63.14,12.012c15.41,0 29.38,-1.465 41.94,-4.473c12.59,-2.988 24.02,-7.304 34.51,-12.91c10.37,-5.527 19.78,-12.191 28.22,-19.902c8.42,-7.719 15.9,-16.09 22.44,-25.219l-62.5,-48.41c-8.55,10.84 -17.97,19.449 -28.22,25.679c-10.26,6.309 -22.74,9.43 -37.21,9.43c-10.62,0 -20.21,-2.07 -29,-6.191c-8.65,-4.117 -16.13,-9.719 -22.38,-16.891c-6.35,-7.129 -11.2,-15.629 -14.79,-25.219c-3.59,-9.781 -5.35,-19.98 -5.35,-30.859l0,-0.891c0,-11.14 1.76,-21.629 5.35,-31.468c3.59,-9.77 8.44,-18.36 14.79,-25.4301c6.25,-7.2109 13.73,-12.789 22.38,-16.9726c8.79,-4.0586 18.38,-6.1172 29,-6.1172c7.64,0 14.71,0.7695 21.17,2.4687c6.39,1.75 12.27,4.2305 17.58,7.5313c5.24,3.3594 10.24,7.1289 14.94,11.5703c4.73,4.4496 9.32,9.3476 13.91,14.7576l62.44,-44.5271c-7.07,-9.6719 -14.84,-18.6719 -23.26,-26.9727c-8.44,-8.2383 -17.97,-15.4297 -28.69,-21.3906c-10.72,-5.9375 -22.68,-10.71876 -35.94,-14.19922c-13.3,-3.41016 -28.2,-5.10938 -44.77,-5.10938" id="path24"/>
    <path fill="#231f20" fill-rule="nonzero" d="m2396.094369,134.862629c-21.33,0 -40.64,2.718752 -57.71,8.128902c-17.19,5.46876 -31.7,13.78906 -43.65,25.03906c-12.09,11.25 -21.25,25.5703 -27.64,42.832c-6.49,17.3086 -9.65,37.6411 -9.65,61.0191l0,168.239l84.75,0l0,-166.539c0,-21.719 4.9,-37.758 14.86,-48.1683c9.9,-10.4336 23.28,-15.6211 39.98,-15.6211c16.68,0 30.06,4.961 39.88,15.0391c9.96,9.8793 14.92,25.4803 14.92,46.5823l0,168.707l84.77,0l0,-166.129c0,-24.262 -3.38,-45.1212 -10.08,-62.7189c-6.72,-17.5 -16.15,-31.9922 -28.28,-43.2422c-12.13,-11.25 -26.8,-19.5703 -44.06,-25.03906c-17.33,-5.41015 -36.64,-8.128902 -58.09,-8.128902" id="path26"/>
    <path fill="#231f20" fill-rule="nonzero" d="m2665.554369,367.311691l-89.85,0l0,72.809l262.87,0l0,-72.809l-90,0l0,-226.83969l-83.02,0l0,226.83969" id="path28"/>
    <path fill="#231f20" fill-rule="nonzero" d="m1312.327369,830.979691l123.607,0l-123.607,123.633l0,-123.633" id="path30"/>
    <path fill="#231f20" fill-rule="nonzero" d="m1312.327369,1160.411691l0,-98.104l231.297,-231.328l98.13,0l-329.427,329.432" id="path32"/>
    <path fill="#231f20" fill-rule="nonzero" d="m1670.084369,1420.061691l-98.11,0l329.42,-329.414l0,98.084l-231.31,231.33" id="path34"/>
    <path fill="#231f20" fill-rule="nonzero" d="m1777.774369,1420.061691l123.62,-123.59l0,123.59l-123.62,0" id="path36"/>
    <path fill="#231f20" fill-rule="nonzero" d="m1759.394369,919.104691l-358.94,358.987l53.85,53.86l358.96,-359.019l-53.87,-53.828zm102.93,102.91l-358.96,358.967l39.06,39.08l-230.097,0l0,-230.12l39.067,39.09l358.94,-358.989l-39.03,-39.063l230.09,0l0,230.117l-39.07,-39.082" id="path38"/>
   </g>
  </g>
 </g>
</svg>
