<svg viewBox="0 0 640 480" xmlns="http://www.w3.org/2000/svg">
 <metadata id="metadata8">image/svg+xml</metadata>
 <g>
  <title>Layer 1</title>
  <g id="g10" transform="matrix(0.9137382358312607,0,0,-0.9137382358312607,6.775271255540019,247.7379735481336) ">
   <g id="g12" transform="translate(-29.600000381469727,-91.19999694824219) scale(0.10000000149011612) ">
    <path fill="#f47216" fill-rule="nonzero" d="m4009.609141,735.837776c-5.39,-3.559 -11.89,-7.629 -17.83,-11.051l-1.81,-1.047l1.81,-0.211c116.51,-31.992 231.87,-30.789 254,41.899c28.64,93.851 -156.69,194.531 -244.17,242.511c-18.73,10.274 -26.88,3.856 -14.91,-9.882c55.22,-63.594 133.89,-188.719 22.91,-262.219" id="path14"/>
    <path fill="#231f20" fill-rule="nonzero" d="m5014.029141,1147.378776l-98.17,0l0,82.24l98.17,0l0,121.89l95.17,0l0,-121.89l156.57,0l0,-82.24l-156.57,0l0,-247.522c0,-61.929 17.26,-94.378 96.57,-94.378c30.35,0 64.44,8.691 64.44,8.691l0,-85.66c-33.08,-4.481 -57.12,-7.129 -94.64,-7.129c-149.93,0 -161.54,108.039 -161.54,167.297l0,258.701" id="path16"/>
    <path fill="#231f20" fill-rule="nonzero" d="m6278.289141,720.188776l97.4805,0l0,509.906l-97.4805,0l0,-509.906z" id="path18"/>
    <path fill="#231f20" fill-rule="nonzero" d="m6448.849141,979.911776c0,191.757 155,256.897 262.68,256.897c122.32,0 181.61,-70.15 181.61,-70.15l5.05,63.41l89.02,0l0,-510.891l-89.16,0l-4.91,67.492c0,0 -61.01,-67.602 -182.69,-67.602c-122.11,0 -261.6,70.942 -261.6,260.844zm99.06,-1.015c0,-138.887 114.44,-173.516 168.68,-173.516c103.51,0 176.55,58.508 176.55,175.516c0,117.022 -83.04,170.602 -177.55,170.602c-53.59,0 -167.68,-31.5 -167.68,-172.602" id="path20"/>
    <path fill="#231f20" fill-rule="nonzero" d="m6390.779141,1347.808776c0,35.2 -28.53,63.75 -63.74,63.75c-35.2,0 -63.75,-28.55 -63.75,-63.75c0,-35.22 28.55,-63.76 63.75,-63.76c35.21,0 63.74,28.54 63.74,63.76" id="path22"/>
    <path fill="#231f20" fill-rule="nonzero" d="m6207.089141,1142.428776l0,86.35c-96.25,8.8 -163.8,-14.27 -216.45,-69.27l-5.07,70.33l-92.43,0l0,-510.321l97.5,0l0,264.418c0,73.769 59.46,167.293 216.45,158.493" id="path24"/>
    <path fill="#231f20" fill-rule="nonzero" d="m5721.369141,1021.735776c0,69.333 -69.78,127.133 -155.49,127.133c-91.79,0 -167.69,-56.63 -173.82,-127.133l329.31,0zm-432.17,-43.757c0,159.51 117.86,261.92 275.34,261.92c156.41,0 263.88,-114.3 263.88,-253.124c0,0 0,-21.668 -2.07,-41.347l-435.76,-1.856c4.16,-78.785 95.08,-138.152 188.95,-138.152c101.03,0 160.94,62.551 160.94,62.551l69.73,-61.321c-70.76,-67.941 -147.96,-88.621 -230.63,-88.621c-171.87,0 -290.38,100.442 -290.38,256.004l0,3.946" id="path26"/>
    <path fill="#231f20" fill-rule="nonzero" d="m4707.189141,1023.903776c-98.12,17.532 -194.61,29.778 -194.61,75.525c0,29.81 29.59,56.03 115.49,56.03c63.83,0 137.46,-14.78 157.42,-59.99l90.46,38c-34.62,69.5 -136.99,102.97 -254.66,102.97c-102.87,0 -213.28,-38.95 -213.28,-143.07c0,-90.195 82.09,-118.234 217.44,-143.703c90.43,-17.008 173.82,-25.637 173.82,-74.387c0,-30.761 -41.02,-70.191 -143.56,-70.191c-72.91,0 -146.45,15.293 -168.93,67.172l-87.69,-36.813c35.95,-80.16 131.4,-121.609 241.99,-121.609c220.84,0 263.5,105.07 263.5,164.691c0,99.313 -98.81,127.758 -197.39,145.375" id="path28"/>
    <path fill="#231f20" fill-rule="nonzero" d="m1903.499141,719.067776c-122.13,0 -182.64,77.61 -182.64,77.61l0,-214.867l-94.12,0l0,648.258l89.04,0l5.08,-63.41c0,0 59.24,70.13 181.59,70.13c107.65,0 262.65,-54.88 262.65,-256.877c0,-201.984 -139.46,-260.844 -261.6,-260.844zm-5.1,432.431c-94.53,0 -177.54,-53.59 -177.54,-170.602c0,-117.008 73.01,-175.516 176.53,-175.516c54.22,0 168.67,22 168.67,173.516c0,151.522 -114.1,172.602 -167.66,172.602" id="path30"/>
    <path fill="#231f20" fill-rule="nonzero" d="m2531.809141,979.911776c0,191.757 155,256.897 262.71,256.897c122.29,0 181.56,-70.15 181.56,-70.15l5.04,63.41l89.06,0l0,-510.891l-88.85,0l-5.25,67.492c0,0 -60.98,-67.602 -182.66,-67.602c-122.13,0 -261.61,70.942 -261.61,260.844zm99.07,-1.015c0,-138.887 114.41,-173.516 168.68,-173.516c103.51,0 176.52,58.508 176.52,175.516c0,117.022 -83.01,170.602 -177.52,170.602c-53.59,0 -167.68,-31.5 -167.68,-172.602" id="path32"/>
    <path fill="#231f20" fill-rule="nonzero" d="m2538.929141,1142.428776l0,86.35c-96.25,8.8 -163.83,-14.27 -216.48,-69.27l-5.04,70.33l-92.48,0l0,-510.321l97.52,0l0,264.418c0,73.769 59.47,167.293 216.48,158.493" id="path34"/>
    <path fill="#231f20" fill-rule="nonzero" d="m768.773141,1023.903776c-98.136,17.532 -194.59,29.778 -194.59,75.525c0,29.81 29.571,56.03 115.457,56.03c63.821,0 137.454,-14.78 157.414,-59.99l90.508,38c-34.648,69.5 -137.031,102.97 -254.668,102.97c-102.871,0 -213.32,-38.95 -213.32,-143.07c0,-90.195 82.09,-118.234 217.48,-143.703c90.391,-17.008 173.829,-25.637 173.829,-74.387c0,-30.761 -41.055,-70.191 -143.582,-70.191c-72.903,0 -146.457,15.293 -168.938,67.172l-87.676,-36.813c35.918,-80.16 131.387,-121.609 241.992,-121.609c220.782,0 263.5,105.07 263.5,164.691c0,99.313 -98.812,127.758 -197.406,145.375" id="path36"/>
    <path fill="#231f20" fill-rule="nonzero" d="m1289.919141,805.380776c-80.14,0 -185.67,34.629 -185.67,173.516c0,141.102 117.05,169.772 185.67,169.772c68.61,0 185.66,-28.67 185.66,-169.772c0,-138.887 -105.53,-173.516 -185.66,-173.516zm0,431.428c-130.41,0 -284.74,-65.14 -284.74,-256.897c0,-189.902 138.86,-263.683 284.74,-263.683c145.88,0 284.73,73.781 284.73,263.683c0,191.757 -154.33,256.897 -284.73,256.897" id="path38"/>
    <path fill="#db1d2b" fill-rule="nonzero" d="m3990.079141,723.786776c0,0 -146.69,-92.199 -405.57,-92.199c-100.3,0 -184.74,15.359 -220.45,50.492c-37.61,36.988 -58.01,99.309 -58.01,156.609c0,49.098 20.4,90.379 62.9,90.379c109.17,0 449.17,-172.937 621.13,-205.281" id="path40"/>
    <path fill="#f47216" fill-rule="nonzero" d="m3501.219141,1258.408776c5.39,3.56 11.9,7.62 17.83,11.04l1.82,1.06l-1.82,0.21c-116.5,31.99 -231.86,30.78 -253.99,-41.9c-28.64,-93.85 156.69,-194.532 244.17,-242.512c18.73,-10.274 26.87,-3.856 14.9,9.882c-55.21,63.59 -133.89,188.72 -22.91,262.22" id="path42"/>
    <path fill="#db1d2b" fill-rule="nonzero" d="m3520.749141,1270.458776c0,0 146.69,92.2 405.58,92.2c100.3,0 184.74,-15.36 220.45,-50.49c37.61,-37 58.01,-99.31 58.01,-156.61c0,-49.1 -20.4,-90.39 -62.9,-90.39c-109.17,0 -449.18,172.95 -621.14,205.29" id="path44"/>
   </g>
  </g>
 </g>
</svg>
