<svg viewBox="0 0 640 480" xmlns="http://www.w3.org/2000/svg">

 <g>
  <title>background</title>
  <rect fill="none" id="canvas_background" height="482" width="642" y="-1" x="-1"/>
 </g>
 <g>
  <title>Layer 1</title>
  <g stroke="null" id="svg_14">
   <polygon stroke="null" id="svg_1" points="165.2243194580078,257.1715087890625 125.31216430664062,270.1661682128906 125.31216430664062,228.1655731201172 " fill="#0099C9"/>
   <polygon stroke="null" id="svg_2" points="125.31216430664062,228.1655731201172 125.31216430664062,270.1661682128906 85.39999389648438,257.1715087890625 " fill="#0080BB"/>
   <polygon stroke="null" id="svg_3" points="125.31216430664062,181.2919921875 165.2243194580078,215.17091369628906 125.31216430664062,228.1655731201172 " fill="#CCE5F1"/>
   <polygon stroke="null" id="svg_4" points="165.2243194580078,215.17091369628906 165.2243194580078,257.1715087890625 125.31216430664062,228.1655731201172 " fill="#86C5E0"/>
   <polygon stroke="null" id="svg_5" points="125.54420471191406,181.2919921875 125.31216430664062,228.1655731201172 85.39999389648438,215.17091369628906 " fill="#95CBE3"/>
   <polygon stroke="null" id="svg_6" points="85.39999389648438,215.17091369628906 125.31216430664062,228.1655731201172 85.39999389648438,257.1715087890625 " fill="#53B2D6"/>
   <g stroke="null" id="svg_7">
    <path stroke="null" id="svg_8" d="m235.53471,249.049848c0,-2.78457 -1.160237,-5.105045 -3.248665,-6.961424c-2.088427,-1.85638 -4.872997,-3.480712 -7.889614,-4.872997c-3.248665,-1.392285 -6.729377,-3.016617 -10.442137,-4.64095c-3.71276,-1.624332 -7.193472,-3.480712 -10.442137,-5.801187c-3.248665,-2.320475 -5.801187,-5.105045 -7.889614,-8.585757c-2.088427,-3.480712 -3.248665,-7.657567 -3.248665,-12.994659c0,-4.64095 0.696142,-8.585757 2.320475,-11.834421c1.624332,-3.480712 3.71276,-6.265282 6.497329,-8.353709c2.78457,-2.320475 6.265282,-3.944807 9.978042,-5.105045c3.944807,-1.160237 8.121662,-1.624332 12.994659,-1.624332c5.56914,0 10.674184,0.464095 15.547181,1.392285c4.872997,0.92819 8.817804,2.320475 12.066469,4.176855l-5.801187,15.547181c-2.088427,-1.160237 -4.872997,-2.320475 -8.817804,-3.480712c-3.944807,-0.92819 -8.121662,-1.624332 -12.762611,-1.624332c-4.408902,0 -7.657567,0.92819 -9.978042,2.552522c-2.320475,1.624332 -3.480712,3.944807 -3.480712,6.961424c0,2.78457 1.160237,4.872997 3.248665,6.729377c2.088427,1.85638 4.872997,3.480712 7.889614,4.872997c3.248665,1.624332 6.729377,3.016617 10.442137,4.64095c3.71276,1.624332 7.193472,3.480712 10.442137,5.801187c3.248665,2.320475 5.801187,5.105045 7.889614,8.585757c2.088427,3.480712 3.248665,7.657567 3.248665,12.530564c0,5.105045 -0.92819,9.281899 -2.552522,12.994659c-1.624332,3.71276 -3.944807,6.729377 -6.961424,9.049852c-3.016617,2.320475 -6.729377,4.176855 -10.906232,5.337092c-4.176855,1.160237 -9.049852,1.85638 -14.154896,1.85638c-6.729377,0 -12.762611,-0.696142 -17.867656,-1.85638c-5.105045,-1.160237 -8.817804,-2.552522 -11.370326,-3.71276l6.033234,-15.779229c0.92819,0.464095 2.320475,1.160237 3.944807,1.85638c1.624332,0.696142 3.248665,1.160237 5.337092,1.85638c2.088427,0.464095 4.176855,0.92819 6.265282,1.392285c2.088427,0.464095 4.408902,0.464095 6.729377,0.464095c5.56914,0 9.745994,-0.92819 12.530564,-2.78457c3.016617,-2.088427 4.408902,-4.872997 4.408902,-8.585757z" fill="#1D1D1B"/>
    <path stroke="null" id="svg_9" d="m285.889013,244.640946l2.320475,10.442137l0.696142,0l1.85638,-10.674184l10.210089,-37.823739l18.099703,0l-20.420178,60.79644c-1.624332,5.105045 -3.248665,9.745994 -4.872997,13.922849c-1.624332,4.176855 -3.248665,7.889614 -5.105045,10.906232c-1.85638,3.016617 -3.944807,5.337092 -6.265282,6.961424c-2.320475,1.624332 -5.105045,2.552522 -8.121662,2.552522c-4.64095,0 -8.353709,-0.696142 -11.138279,-2.320475l3.248665,-13.922849c1.392285,0.464095 2.78457,0.696142 3.944807,0.696142c2.088427,0 4.176855,-0.92819 6.033234,-2.552522c1.85638,-1.85638 3.480712,-4.872997 4.408902,-9.513947l-28.077745,-67.293769l21.116321,0l12.066469,37.823739z" fill="#1D1D1B"/>
    <path stroke="null" id="svg_10" d="m353.646877,255.779225c0,-1.85638 -0.696142,-3.248665 -2.320475,-4.408902c-1.624332,-1.160237 -3.480712,-2.088427 -5.56914,-3.016617c-2.320475,-0.92819 -4.64095,-1.85638 -7.425519,-2.78457c-2.78457,-0.92819 -5.105045,-2.320475 -7.425519,-3.944807c-2.320475,-1.624332 -4.176855,-3.71276 -5.56914,-6.265282c-1.624332,-2.552522 -2.320475,-5.801187 -2.320475,-9.978042c0,-6.729377 2.088427,-11.834421 6.033234,-15.315134c3.944807,-3.480712 9.745994,-5.337092 17.171513,-5.337092c5.105045,0 9.745994,0.464095 13.922849,1.624332c4.176855,1.160237 7.425519,2.320475 9.745994,3.71276l-3.944807,12.762611c-2.088427,-0.92819 -4.64095,-1.624332 -7.889614,-2.552522c-3.248665,-0.92819 -6.265282,-1.392285 -9.513947,-1.392285c-5.105045,0 -7.889614,2.088427 -7.889614,6.033234c0,1.624332 0.696142,3.016617 2.320475,3.944807c1.624332,0.92819 3.480712,1.85638 5.56914,2.78457c2.320475,0.92819 4.64095,1.85638 7.425519,2.78457c2.78457,0.92819 5.105045,2.320475 7.425519,3.944807c2.320475,1.624332 4.176855,3.71276 5.56914,6.033234c1.624332,2.552522 2.320475,5.801187 2.320475,9.745994c0,6.729377 -2.088427,12.298516 -6.497329,16.011276c-4.408902,3.944807 -10.906232,5.801187 -19.724036,5.801187c-4.872997,0 -9.281899,-0.696142 -13.458754,-1.85638c-4.176855,-1.160237 -7.657567,-2.552522 -10.210089,-4.176855l4.872997,-12.994659c2.088427,1.160237 4.872997,2.320475 8.121662,3.480712c3.480712,1.160237 6.961424,1.624332 10.442137,1.624332c2.552522,0 4.64095,-0.464095 6.265282,-1.392285c1.624332,-0.92819 2.552522,-2.552522 2.552522,-4.872997z" fill="#1D1D1B"/>
    <path stroke="null" id="svg_11" d="m376.155482,206.817207l9.281899,0l0,-12.762611l17.635608,-4.872997l0,17.635608l16.475371,0l0,14.851039l-16.475371,0l0,25.989318c0,4.64095 0.464095,8.121662 1.392285,9.978042c0.92819,2.088427 2.78457,3.016617 5.337092,3.016617c1.85638,0 3.248665,-0.232047 4.64095,-0.464095c1.392285,-0.464095 2.78457,-0.92819 4.408902,-1.624332l3.016617,13.458754c-2.320475,1.160237 -5.337092,2.088427 -8.585757,3.016617c-3.248665,0.696142 -6.497329,1.160237 -9.745994,1.160237c-6.265282,0 -10.674184,-1.624332 -13.690801,-4.872997c-3.016617,-3.248665 -4.408902,-8.353709 -4.408902,-15.779229l0,-33.878932l-9.281899,0l0,-14.851039z" fill="#1D1D1B"/>
    <path stroke="null" id="svg_12" d="m482.897323,268.541836c-2.78457,2.088427 -6.265282,3.944807 -10.906232,5.56914c-4.64095,1.392285 -9.513947,2.320475 -14.851039,2.320475c-10.906232,0 -18.795846,-3.248665 -23.90089,-9.513947c-5.105045,-6.265282 -7.657567,-15.083086 -7.657567,-25.989318c0,-11.834421 2.78457,-20.652226 8.585757,-26.68546c5.56914,-6.033234 13.690801,-8.817804 23.90089,-8.817804c3.480712,0 6.729377,0.464095 9.978042,1.392285c3.248665,0.92819 6.033234,2.320475 8.585757,4.408902c2.552522,2.088427 4.64095,4.872997 6.033234,8.353709c1.624332,3.480712 2.320475,7.889614 2.320475,12.994659c0,1.85638 0,3.944807 -0.232047,6.033234c-0.232047,2.088427 -0.464095,4.408902 -0.92819,6.729377l-40.376261,0c0.232047,5.56914 1.624332,9.978042 4.408902,12.762611c2.552522,2.78457 6.961424,4.408902 12.994659,4.408902c3.71276,0 6.961424,-0.464095 9.978042,-1.624332c3.016617,-1.160237 5.105045,-2.320475 6.729377,-3.480712l5.337092,11.138279zm-25.061128,-49.426113c-4.64095,0 -7.889614,1.392285 -10.210089,4.176855c-2.088427,2.78457 -3.480712,6.497329 -3.944807,10.906232l25.061128,0c0.464095,-4.872997 -0.464095,-8.585757 -2.320475,-11.138279c-1.85638,-2.78457 -4.64095,-3.944807 -8.585757,-3.944807z" fill="#1D1D1B"/>
    <path stroke="null" id="svg_13" d="m518.400587,246.265278l-4.64095,0l0,27.845698l-17.635608,0l0,-94.443324l17.635608,0l0,55.691395l3.944807,-1.85638l15.315134,-26.917508l19.259941,0l-16.243324,25.525223l-6.961424,5.105045l7.425519,5.337092l18.099703,31.32641l-19.724036,0l-16.475371,-27.61365z" fill="#1D1D1B"/>
   </g>
  </g>
 </g>
</svg>
