<?xml version="1.0" encoding="utf-8"?>
<!-- Generator: Adobe Illustrator 21.0.2, SVG Export Plug-In . SVG Version: 6.00 Build 0)  -->
<svg version="1.1" id="Layer_1" xmlns="http://www.w3.org/2000/svg" xmlns:xlink="http://www.w3.org/1999/xlink" x="0px" y="0px"
	 viewBox="0 0 640 480" style="enable-background:new 0 0 640 480;" xml:space="preserve">
<style type="text/css">
	.st0{clip-path:url(#SVGID_2_);}
	.st1{fill:#231F20;}
</style>
<g>
	<title>Layer 1</title>
	<g id="g10" transform="matrix(0.8294135723795959,0,0,-0.8294135723795959,23.69381508453842,561.7190624188123) ">
		<g id="g12">
			<g>
				<defs>
					<rect id="SVGID_1_" x="-78.9" y="79.5" width="872.2" height="616.7"/>
				</defs>
				<clipPath id="SVGID_2_">
					<use xlink:href="#SVGID_1_"  style="overflow:visible;"/>
				</clipPath>
				<g id="g14" class="st0">
					<g id="g20">
						<path id="path22" class="st1" d="M205.5,322.2c-18,0-30.6,9-30.6,27.9V424c0,17.8,10.8,29,28.8,29h56.1v-19h-49.4
							c-10.2,0-16.5-3.9-16.5-14.7V397h55.8v-18.8h-55.8v-22c0-11,6.3-14.9,16.7-14.9h49.2v-19L205.5,322.2L205.5,322.2z"/>
					</g>
					<g id="g24">
						<path id="path26" class="st1" d="M410.5,434c-12.9,0-16.6-4.5-16.7-12.5c0-2.9,0-6.4,0-10.2c0-4.1,1.2-7.8,4.5-10.6
							c3.7-2.9,7.7-2.9,12.2-2.9H427c16.9,0,32.6-9.4,32.6-26.9v-20.8c0-18.4-12.2-27.9-30-27.9h-52.7v19h47
							c18.2,0,16.5,9.6,16.5,24.1c0,10.6-6.3,13.3-15.9,13.3h-20.2c-15.9,0-29.4,10.5-29.4,27.5v19.1c0,8.4,3.2,16.3,9.7,21.8
							c4.8,4.1,11.9,5.8,19.3,5.8h49.6v-19H410.5L410.5,434z"/>
					</g>
					<g id="g28">
						<path id="path30" class="st1" d="M510.5,434V322.2h-19V434h-29v19h76.9v-19H510.5L510.5,434z"/>
					</g>
					<g id="g32">
						<path id="path34" class="st1" d="M348.4,363.6c0,9.6-5.3,14.3-14.7,14.5h-41v-36.9h41c9.2-0.2,14.7,3.9,14.7,13.5V363.6z
							 M292.6,434V397l30.9,0c9,0,15.1,3.7,15.1,13.3v9.6c0,10-6.5,14.2-15.7,14.2H292.6z M575.4,322.2c-18,0-30.6,9-30.6,27.8V424
							c0,17.8,10.8,29,28.8,29h56.1v-19h-49.4c-10.2,0-16.5-3.9-16.5-14.7V397h55.8v-18.8h-55.8v-22c0-11,6.3-14.9,16.7-14.9h49.2
							v-19L575.4,322.2L575.4,322.2z M353.3,392.9c9.5-4.5,14.2-13,14.2-26v-14.7c0-18.2-9.2-30-28-30h-65.7v130.8h47l9.2-0.2
							c18.7,0,27.8-12,27.8-29.6v-12c0-8.1-0.7-13.5-4.2-18.1L353.3,392.9z"/>
					</g>
					<g id="g36">
						<path id="path38" class="st1" d="M643.6,434v19h54.6c15.9,0,28.8-8.8,29-25.7c0.2-9.4,0.2-12.3,0.2-21.7
							c0-17.5-10.8-28-28.2-28h-36.6v-55.3h-19V397l49.1,0c10.4,0,15.7,1,15.7,11.8v12.1c0,9-7.1,13.1-15.3,13.1L643.6,434z"/>
					</g>
					<g id="g40">
						<path id="path42" class="st1" d="M149.6,453.1l-22.5-97.6l-1-8.1l-0.9,8.3l-18.1,83.8c-1.6,8.2-6,14.2-15.2,14.2h-0.1
							c-9.2,0-13.6-6-15.2-14.2l-18.1-83.9l-1-8.2l-0.9,8.2l-16.8,73c-3.4,16.3-14.5,24.6-31.2,24.6l-21.7,0.1v-18.5l21.1,0
							c6.4,0,11.8-4.5,13.2-10.5l20.2-88c1.8-7.4,7.2-13.9,15.4-13.9c8.2,0,14.6,5.1,16.2,12.8l18,83.5l0.7,5.9l0.7-6l18-83.5
							c1.6-7.6,7.9-12.8,16.2-12.8c8.2,0,13.7,6.5,15.4,13.9l26.9,117L149.6,453.1L149.6,453.1z"/>
					</g>
				</g>
			</g>
		</g>
	</g>
</g>
</svg>
